<?xml version="1.0" ?><!DOCTYPE svg  PUBLIC '-//W3C//DTD SVG 1.1//EN'  'http://www.w3.org/Graphics/SVG/1.1/DTD/svg11.dtd'><svg enable-background="new 0 0 128 128" height="128px" id="Layer_1" version="1.1" viewBox="0 0 128 128" width="128px" xml:space="preserve" xmlns="http://www.w3.org/2000/svg" xmlns:xlink="http://www.w3.org/1999/xlink"><g><path d="M97.452,50.813c-1.333-1.87-2.095-6.414-0.522-9.691c1.567-3.287,3.228-7.38,2.422-13.687   c-0.998-7.84-4.416-14.114-8.554-18.104C81.705,0.552,72.645,0,63.998,0c-8.643,0-17.703,0.552-26.794,9.333   c-4.135,3.991-7.554,10.265-8.553,18.105c-0.804,6.307,0.855,10.398,2.423,13.688c1.567,3.279,0.812,7.823-0.525,9.693   c-1.425,1.997-2.499,3.487-2.456,6.576c0.021,1.625,1.129,5.396,4.32,6.75c2.567,1.089,2.478,0.332,6.021,0.794   c3.281,0.427,4.421,3.559,5.133,6.552c0.711,2.989,0.711,5.509,2.854,6.792C48.56,79.562,57.343,82,64,82   c6.658,0,15.439-2.438,17.58-3.723c2.139-1.282,2.139-3.801,2.854-6.793c0.711-2.992,1.853-6.123,5.131-6.551   c3.551-0.462,3.461,0.289,6.022-0.795c3.19-1.354,4.297-5.125,4.32-6.75C99.95,54.303,98.878,52.811,97.452,50.813z M44.907,58.386   c-3.662-0.558-6.001-3.038-6.706-4.295c-0.703-1.257-1.464-3.611-0.928-6.472c0.769-4.106,2.729-7.304,7.333-7.469   c4.876-0.17,14.297,0.3,15.075,6.667c0.469,3.844-1.645,8.692-5.263,10.236C51.677,58.22,48.57,58.94,44.907,58.386z    M69.902,70.443c-0.807,0.146-2.166,0.812-3.743-0.277c-0.79-0.546-1.76-1.116-2.126-1.116c-0.366,0-1.401,0.57-2.19,1.116   c-1.576,1.089-2.935,0.427-3.743,0.277c-1.233-0.229-1.804-2.329-1.053-4.561c0.604-1.797,1.949-3.833,3.071-5.983   c0.599-1.142,1.77-3.943,3.838-2.709l0.09-0.001c2.071-1.233,3.224,1.694,3.823,2.836c1.121,2.152,2.48,4.06,3.086,5.856   C71.707,68.114,71.137,70.214,69.902,70.443z M89.798,54.09c-0.7,1.258-3.04,3.739-6.7,4.295c-3.664,0.555-6.771-0.167-9.515-1.333   c-3.617-1.544-5.731-6.394-5.265-10.236c0.777-6.368,10.199-6.838,15.076-6.667c4.603,0.164,6.563,3.362,7.33,7.467   C91.262,50.479,90.5,52.833,89.798,54.09z"/></g><path d="M104.908,108.548c-6.688,0.71-11.329-1.024-18.637-3.53c-2.11-0.724-5.079-1.773-8.545-3.022  c9.217-3.275,17.169-5.941,21.041-6.985c6.416-1.729,7.529-0.723,12.443-1.094c4.469-0.336,10.377-2.915,8.395-8.979  c-0.998-3.053-1.633-2.084-3.66-3.463c-1.969-1.342-1.625-3.779-2.867-5.483c-2.846-3.905-7.176-1.308-8.996,1.319  c-1.23,1.773-2.578,3.127-5.455,5.602c-1.816,1.561-19.041,8.254-34.629,14.052c-15.588-5.798-32.811-12.49-34.627-14.05  c-2.875-2.477-4.222-3.83-5.452-5.602c-1.822-2.627-6.152-5.227-8.995-1.319c-1.244,1.705-0.9,4.146-2.87,5.483  c-2.027,1.379-2.662,0.412-3.66,3.463c-1.982,6.062,3.926,8.644,8.394,8.979c4.914,0.371,6.028-0.639,12.444,1.094  c3.872,1.043,11.821,3.709,21.035,6.983c-3.464,1.248-6.431,2.298-8.541,3.021c-7.308,2.506-11.95,4.24-18.636,3.53  c-5.568-0.591-13.265-3.729-15.024,4.929c-0.627,3.075,3.551,4.584,4.441,7.618c0.822,3.048,1.399,4.663,4.608,6.197  c6.37,3.05,8.084-4.511,15.991-8.087c6.578-2.974,18.685-7.698,30.891-12.222c12.208,4.523,24.317,9.25,30.896,12.224  c7.908,3.576,9.623,11.137,15.992,8.087c3.208-1.534,3.787-3.149,4.607-6.197c0.891-3.034,5.068-4.543,4.441-7.618  C118.172,104.818,110.477,107.956,104.908,108.548z"/></svg>