<?xml version="1.0" standalone="yes"?>

<svg version="1.1" viewBox="0.0 0.0 764.0 534.0" fill="none" stroke="none" stroke-linecap="square" stroke-miterlimit="10" xmlns="http://www.w3.org/2000/svg" xmlns:xlink="http://www.w3.org/1999/xlink"><clipPath id="p.0"><path d="m0 0l764.0 0l0 534.0l-764.0 0l0 -534.0z" clip-rule="nonzero"></path></clipPath><g clip-path="url(#p.0)"><path fill="#000000" fill-opacity="0.0" d="m0 0l764.06036 0l0 534.08923l-764.06036 0z" fill-rule="nonzero"></path><path fill="#cfe2f3" d="m6.446194 21.487806l0 0c0 -8.9001255 7.214977 -16.115103 16.115103 -16.115103l720.0218 0c4.273987 0 8.372925 1.6978359 11.395081 4.720004c3.0221558 3.0221682 4.7200317 7.121108 4.7200317 11.395099l0 492.17926c0 8.9001465 -7.214966 16.115112 -16.115112 16.115112l-720.0218 0c-8.9001255 0 -16.115103 -7.214966 -16.115103 -16.115112z" fill-rule="nonzero"></path><path fill="#000000" fill-opacity="0.0" d="m37.61155 34.38845l235.3386 0l0 97.79528l-235.3386 0z" fill-rule="nonzero"></path><path fill="#000000" d="m52.814674 56.37095l-2.21875 0l0 4.9375l-2.78125 0l0 -13.515625l5.015625 0q2.40625 0 3.703125 1.078125q1.296875 1.0625 1.296875 3.015625q0 1.375 -0.609375 2.296875q-0.59375 0.921875 -1.8125 1.46875l2.9375 5.53125l0 0.125l-3.0 0l-2.53125 -4.9375zm-2.21875 -2.265625l2.25 0q1.046875 0 1.625 -0.53125q0.578125 -0.53125 0.578125 -1.46875q0 -0.953125 -0.546875 -1.5q-0.546875 -0.546875 -1.671875 -0.546875l-2.234375 0l0 4.046875zm8.531113 2.09375q0 -1.5 0.578125 -2.65625q0.578125 -1.171875 1.65625 -1.8125q1.078125 -0.640625 2.515625 -0.640625q2.03125 0 3.3125 1.25q1.28125 1.234375 1.4375 3.359375l0.015625 0.6875q0 2.3125 -1.296875 3.71875q-1.28125 1.390625 -3.453125 1.390625q-2.171875 0 -3.46875 -1.390625q-1.296875 -1.390625 -1.296875 -3.78125l0 -0.125zm2.6875 0.1875q0 1.4375 0.53125 2.203125q0.546875 0.75 1.546875 0.75q0.96875 0 1.515625 -0.75q0.546875 -0.75 0.546875 -2.390625q0 -1.40625 -0.546875 -2.171875q-0.546875 -0.765625 -1.53125 -0.765625q-0.984375 0 -1.53125 0.765625q-0.53125 0.765625 -0.53125 2.359375zm7.8612976 -0.1875q0 -1.5 0.578125 -2.65625q0.578125 -1.171875 1.65625 -1.8125q1.078125 -0.640625 2.515625 -0.640625q2.03125 0 3.3125 1.25q1.28125 1.234375 1.4375 3.359375l0.015625 0.6875q0 2.3125 -1.296875 3.71875q-1.28125 1.390625 -3.453125 1.390625q-2.171875 0 -3.46875 -1.390625q-1.296875 -1.390625 -1.296875 -3.78125l0 -0.125zm2.6875 0.1875q0 1.4375 0.53125 2.203125q0.546875 0.75 1.546875 0.75q0.96875 0 1.515625 -0.75q0.546875 -0.75 0.546875 -2.390625q0 -1.40625 -0.546875 -2.171875q-0.546875 -0.765625 -1.53125 -0.765625q-0.984375 0 -1.53125 0.765625q-0.53125 0.765625 -0.53125 2.359375zm11.486298 -7.578125l0 2.46875l1.71875 0l0 1.953125l-1.71875 0l0 5.015625q0 0.5625 0.21875 0.8125q0.21875 0.234375 0.8125 0.234375q0.453125 0 0.796875 -0.078125l0 2.03125q-0.796875 0.25 -1.625 0.25q-2.828125 0 -2.875 -2.84375l0 -5.421875l-1.46875 0l0 -1.953125l1.46875 0l0 -2.46875l2.671875 0zm14.9183655 8.953125q0 -0.78125 -0.5625 -1.203125q-0.546875 -0.421875 -2.0 -0.890625q-1.4375 -0.46875 -2.28125 -0.921875q-2.296875 -1.25 -2.296875 -3.359375q0 -1.09375 0.609375 -1.953125q0.625 -0.859375 1.78125 -1.328125q1.15625 -0.484375 2.59375 -0.484375q1.4375 0 2.5625 0.53125q1.140625 0.515625 1.765625 1.46875q0.625 0.953125 0.625 2.171875l-2.78125 0q0 -0.9375 -0.59375 -1.4375q-0.578125 -0.515625 -1.625 -0.515625q-1.03125 0 -1.59375 0.4375q-0.5625 0.421875 -0.5625 1.125q0 0.65625 0.65625 1.109375q0.671875 0.4375 1.953125 0.828125q2.375 0.71875 3.453125 1.78125q1.09375 1.046875 1.09375 2.625q0 1.75 -1.328125 2.75q-1.328125 1.0 -3.5625 1.0q-1.5625 0 -2.84375 -0.5625q-1.28125 -0.578125 -1.953125 -1.5625q-0.671875 -1.0 -0.671875 -2.3125l2.796875 0q0 2.234375 2.671875 2.234375q0.984375 0 1.53125 -0.40625q0.5625 -0.40625 0.5625 -1.125zm8.468857 1.578125q0.75 0 1.203125 -0.40625q0.46875 -0.421875 0.484375 -1.09375l2.515625 0q-0.015625 1.015625 -0.5625 1.875q-0.546875 0.84375 -1.5 1.3125q-0.9375 0.46875 -2.09375 0.46875q-2.15625 0 -3.40625 -1.359375q-1.234375 -1.375 -1.234375 -3.796875l0 -0.171875q0 -2.3125 1.234375 -3.6875q1.234375 -1.390625 3.390625 -1.390625q1.875 0 3.015625 1.078125q1.140625 1.0625 1.15625 2.84375l-2.515625 0q-0.015625 -0.78125 -0.484375 -1.265625q-0.453125 -0.484375 -1.21875 -0.484375q-0.9375 0 -1.421875 0.6875q-0.46875 0.671875 -0.46875 2.203125l0 0.28125q0 1.546875 0.46875 2.234375q0.46875 0.671875 1.4375 0.671875zm5.135193 -3.140625q0 -1.5 0.578125 -2.65625q0.578125 -1.171875 1.65625 -1.8125q1.078125 -0.640625 2.515625 -0.640625q2.03125 0 3.3125 1.25q1.28125 1.234375 1.4375 3.359375l0.015625 0.6875q0 2.3125 -1.296875 3.71875q-1.28125 1.390625 -3.453125 1.390625q-2.171875 0 -3.46875 -1.390625q-1.296875 -1.390625 -1.296875 -3.78125l0 -0.125zm2.6875 0.1875q0 1.4375 0.53125 2.203125q0.546875 0.75 1.546875 0.75q0.96875 0 1.515625 -0.75q0.546875 -0.75 0.546875 -2.390625q0 -1.40625 -0.546875 -2.171875q-0.546875 -0.765625 -1.53125 -0.765625q-0.984375 0 -1.53125 0.765625q-0.53125 0.765625 -0.53125 2.359375zm17.314415 0q0 2.3125 -1.0625 3.71875q-1.046875 1.390625 -2.828125 1.390625q-1.5312424 0 -2.4531174 -1.0625l0 4.734375l-2.6875 0l0 -13.890625l2.484375 0l0.09375 0.96875q0.96875 -1.15625 2.5468674 -1.15625q1.84375 0 2.875 1.375q1.03125 1.359375 1.03125 3.78125l0 0.140625zm-2.671875 -0.203125q0 -1.390625 -0.5 -2.15625q-0.5 -0.765625 -1.4374924 -0.765625q-1.265625 0 -1.734375 0.96875l0 4.109375q0.484375 1.0 1.75 1.0q1.9218674 0 1.9218674 -3.15625zm8.768875 5.3125q-2.21875 0 -3.609375 -1.359375q-1.375 -1.359375 -1.375 -3.609375l0 -0.25q0 -1.515625 0.578125 -2.703125q0.59375 -1.203125 1.65625 -1.84375q1.078125 -0.640625 2.453125 -0.640625q2.046875 0 3.234375 1.296875q1.1875 1.296875 1.1875 3.6875l0 1.09375l-6.390625 0q0.125 0.984375 0.78125 1.578125q0.65625 0.59375 1.65625 0.59375q1.546875 0 2.421875 -1.125l1.3125 1.46875q-0.59375 0.859375 -1.625 1.34375q-1.03125 0.46875 -2.28125 0.46875zm-0.3125 -8.234375q-0.796875 0 -1.296875 0.53125q-0.5 0.53125 -0.625 1.546875l3.71875 0l0 -0.21875q-0.015625 -0.890625 -0.484375 -1.375q-0.453125 -0.484375 -1.3125 -0.484375z" fill-rule="nonzero"></path><path fill="#000000" d="m53.939674 79.76157q0 -0.765625 -0.421875 -1.21875q-0.421875 -0.453125 -1.4375 -0.828125q-1.0 -0.375 -1.734375 -0.75q-0.734375 -0.375 -1.265625 -0.859375q-0.515625 -0.5 -0.8125 -1.15625q-0.296875 -0.65625 -0.296875 -1.5625q0 -1.578125 1.0 -2.578125q1.015625 -1.0 2.671875 -1.171875l0 -1.984375l1.484375 0l0 2.015625q1.640625 0.234375 2.5625 1.375q0.9375 1.125 0.9375 2.9375l-2.6875 0q0 -1.109375 -0.46875 -1.65625q-0.453125 -0.5625 -1.21875 -0.5625q-0.765625 0 -1.1875 0.4375q-0.40625 0.4375 -0.40625 1.1875q0 0.703125 0.40625 1.140625q0.40625 0.421875 1.515625 0.875q1.109375 0.4375 1.8125 0.828125q0.71875 0.390625 1.203125 0.890625q0.5 0.5 0.765625 1.140625q0.265625 0.625 0.265625 1.46875q0 1.578125 -0.984375 2.5625q-0.984375 0.984375 -2.71875 1.171875l0 1.84375l-1.46875 0l0 -1.84375q-1.90625 -0.203125 -2.953125 -1.34375q-1.03125 -1.15625 -1.03125 -3.046875l2.671875 0q0 1.09375 0.515625 1.6875q0.53125 0.59375 1.515625 0.59375q0.828125 0 1.296875 -0.4375q0.46875 -0.4375 0.46875 -1.15625zm3.984909 -1.5625q0 -1.5 0.578125 -2.65625q0.578125 -1.171875 1.65625 -1.8125q1.078125 -0.640625 2.515625 -0.640625q2.03125 0 3.3125 1.25q1.28125 1.234375 1.4375 3.359375l0.015625 0.6875q0 2.3125 -1.296875 3.71875q-1.28125 1.390625 -3.453125 1.390625q-2.171875 0 -3.46875 -1.390625q-1.296875 -1.390625 -1.296875 -3.78125l0 -0.125zm2.6875 0.1875q0 1.4375 0.53125 2.203125q0.546875 0.75 1.546875 0.75q0.96875 0 1.515625 -0.75q0.546875 -0.75 0.546875 -2.390625q0 -1.40625 -0.546875 -2.171875q-0.546875 -0.765625 -1.53125 -0.765625q-0.984375 0 -1.53125 0.765625q-0.53125 0.765625 -0.53125 2.359375zm10.751923 -5.109375l0.078125 1.15625q1.078125 -1.34375 2.890625 -1.34375q1.59375 0 2.375 0.9375q0.78125 0.9375 0.796875 2.796875l0 6.484375l-2.6875 0l0 -6.421875q0 -0.859375 -0.375 -1.234375q-0.359375 -0.390625 -1.21875 -0.390625q-1.140625 0 -1.703125 0.96875l0 7.078125l-2.6875 0l0 -10.03125l2.53125 0zm8.104843 4.53125q0 -2.109375 0.5625 -4.03125q0.5625 -1.921875 1.65625 -3.40625q1.109375 -1.484375 2.40625 -2.0625l0.515625 1.453125q-1.359375 1.0 -2.125 3.109375q-0.75 2.09375 -0.75 4.890625l0 0.28125q0 2.8125 0.75 4.921875q0.75 2.109375 2.125 3.140625l-0.515625 1.421875q-1.265625 -0.5625 -2.359375 -2.0q-1.078125 -1.4375 -1.65625 -3.296875q-0.578125 -1.875 -0.609375 -3.921875l0 -0.5zm11.049728 5.6875q-2.21875 0 -3.609375 -1.359375q-1.375 -1.359375 -1.375 -3.609375l0 -0.25q0 -1.515625 0.578125 -2.703125q0.59375 -1.203125 1.65625 -1.84375q1.078125 -0.640625 2.453125 -0.640625q2.046875 0 3.234375 1.296875q1.1875 1.296875 1.1875 3.6875l0 1.09375l-6.390625 0q0.125 0.984375 0.78125 1.578125q0.65625 0.59375 1.65625 0.59375q1.546875 0 2.421875 -1.125l1.3125 1.46875q-0.59375 0.859375 -1.625 1.34375q-1.03125 0.46875 -2.28125 0.46875zm-0.3125 -8.234375q-0.796875 0 -1.296875 0.53125q-0.5 0.53125 -0.625 1.546875l3.71875 0l0 -0.21875q-0.015625 -0.890625 -0.484375 -1.375q-0.453125 -0.484375 -1.3125 -0.484375zm9.521713 4.765625l1.875 -6.75l2.796875 0l-3.390625 10.03125l-2.5625 0l-3.375 -10.03125l2.796875 0l1.859375 6.75zm10.303329 3.46875q-2.21875 0 -3.609375 -1.359375q-1.375 -1.359375 -1.375 -3.609375l0 -0.25q0 -1.515625 0.578125 -2.703125q0.59375 -1.203125 1.65625 -1.84375q1.078125 -0.640625 2.453125 -0.640625q2.046875 0 3.234375 1.296875q1.1875 1.296875 1.1875 3.6875l0 1.09375l-6.390625 0q0.125 0.984375 0.78125 1.578125q0.65625 0.59375 1.65625 0.59375q1.546875 0 2.421875 -1.125l1.3125 1.46875q-0.59375 0.859375 -1.625 1.34375q-1.03125 0.46875 -2.28125 0.46875zm-0.3125 -8.234375q-0.796875 0 -1.296875 0.53125q-0.5 0.53125 -0.625 1.546875l3.71875 0l0 -0.21875q-0.015625 -0.890625 -0.484375 -1.375q-0.453125 -0.484375 -1.3125 -0.484375zm8.240463 -1.984375l0.078125 1.15625q1.078125 -1.34375 2.890625 -1.34375q1.59375 0 2.375 0.9375q0.78125 0.9375 0.796875 2.796875l0 6.484375l-2.6875 0l0 -6.421875q0 -0.859375 -0.375 -1.234375q-0.359375 -0.390625 -1.21875 -0.390625q-1.140625 0 -1.703125 0.96875l0 7.078125l-2.6875 0l0 -10.03125l2.53125 0zm11.1829605 -2.46875l0 2.46875l1.71875 0l0 1.953125l-1.71875 0l0 5.015625q0 0.5625 0.21875 0.8125q0.21875 0.234375 0.8125 0.234375q0.453125 0 0.796875 -0.078125l0 2.03125q-0.796875 0.25 -1.625 0.25q-2.8281174 0 -2.8749924 -2.84375l0 -5.421875l-1.46875 0l0 -1.953125l1.46875 0l0 -2.46875l2.6718674 0zm14.256897 12.5l-2.78125 0l-5.421875 -8.890625l0 8.890625l-2.78125 0l0 -13.515625l2.78125 0l5.4375 8.90625l0 -8.90625l2.765625 0l0 13.515625zm7.828583 0q-0.1875 -0.359375 -0.265625 -0.90625q-0.96875 1.09375 -2.53125 1.09375q-1.484375 0 -2.453125 -0.84375q-0.96875 -0.859375 -0.96875 -2.171875q0 -1.59375 1.1875 -2.4375q1.1875 -0.859375 3.421875 -0.859375l1.234375 0l0 -0.578125q0 -0.703125 -0.359375 -1.109375q-0.359375 -0.421875 -1.125 -0.421875q-0.671875 0 -1.0625 0.328125q-0.390625 0.3125 -0.390625 0.890625l-2.671875 0q0 -0.875 0.53125 -1.609375q0.546875 -0.75 1.515625 -1.171875q0.984375 -0.421875 2.21875 -0.421875q1.859375 0 2.9375 0.9375q1.09375 0.921875 1.09375 2.609375l0 4.359375q0.015625 1.421875 0.40625 2.15625l0 0.15625l-2.71875 0zm-2.21875 -1.859375q0.59375 0 1.09375 -0.265625q0.5 -0.265625 0.75 -0.71875l0 -1.71875l-1.0 0q-2.015625 0 -2.140625 1.390625l-0.015625 0.15625q0 0.5 0.34375 0.828125q0.359375 0.328125 0.96875 0.328125zm8.924103 -8.171875l0.078125 1.109375q1.0625 -1.296875 2.890625 -1.296875q1.9375 0 2.65625 1.53125q1.0625 -1.53125 3.015625 -1.53125q1.640625 0 2.4375 0.953125q0.796875 0.9375 0.796875 2.859375l0 6.40625l-2.6875 0l0 -6.40625q0 -0.84375 -0.34375 -1.234375q-0.328125 -0.40625 -1.171875 -0.40625q-1.203125 0 -1.671875 1.15625l0.015625 6.890625l-2.6875 0l0 -6.390625q0 -0.875 -0.34375 -1.265625q-0.34375 -0.390625 -1.171875 -0.390625q-1.140625 0 -1.640625 0.953125l0 7.09375l-2.6875 0l0 -10.03125l2.515625 0zm18.260513 10.21875q-2.21875 0 -3.609375 -1.359375q-1.375 -1.359375 -1.375 -3.609375l0 -0.25q0 -1.515625 0.578125 -2.703125q0.59375 -1.203125 1.65625 -1.84375q1.078125 -0.640625 2.453125 -0.640625q2.046875 0 3.234375 1.296875q1.1875 1.296875 1.1875 3.6875l0 1.09375l-6.390625 0q0.125 0.984375 0.78125 1.578125q0.65625 0.59375 1.65625 0.59375q1.546875 0 2.421875 -1.125l1.3125 1.46875q-0.59375 0.859375 -1.625 1.34375q-1.03125 0.46875 -2.28125 0.46875zm-0.3125 -8.234375q-0.796875 0 -1.296875 0.53125q-0.5 0.53125 -0.625 1.546875l3.71875 0l0 -0.21875q-0.015625 -0.890625 -0.484375 -1.375q-0.453125 -0.484375 -1.3125 -0.484375zm10.396713 2.765625q0 2.09375 -0.609375 4.046875q-0.609375 1.9375 -1.734375 3.421875q-1.125 1.484375 -2.421875 2.03125l-0.515625 -1.421875q1.3125 -0.984375 2.0625 -3.046875q0.765625 -2.078125 0.796875 -4.765625l0 -0.5q0 -2.765625 -0.765625 -4.875q-0.75 -2.125 -2.09375 -3.1875l0.515625 -1.421875q1.265625 0.5625 2.375 2.0q1.125 1.4375 1.734375 3.34375q0.625 1.90625 0.65625 3.953125l0 0.421875z" fill-rule="nonzero"></path><path fill="#000000" fill-opacity="0.0" d="m298.6273 39.643044l235.3386 0l0 97.79528l-235.3386 0z" fill-rule="nonzero"></path><path fill="#000000" d="m314.9554 63.016167q0 -0.765625 -0.421875 -1.21875q-0.421875 -0.453125 -1.4375 -0.828125q-1.0 -0.375 -1.734375 -0.75q-0.734375 -0.375 -1.265625 -0.859375q-0.515625 -0.5 -0.8125 -1.15625q-0.296875 -0.65625 -0.296875 -1.5625q0 -1.578125 1.0 -2.578125q1.015625 -1.0 2.671875 -1.171875l0 -1.984375l1.484375 0l0 2.015625q1.640625 0.234375 2.5625 1.375q0.9375 1.125 0.9375 2.9375l-2.6875 0q0 -1.109375 -0.46875 -1.65625q-0.453125 -0.5625 -1.21875 -0.5625q-0.765625 0 -1.1875 0.4375q-0.40625 0.4375 -0.40625 1.1875q0 0.703125 0.40625 1.140625q0.40625 0.421875 1.515625 0.875q1.109375 0.4375 1.8125 0.828125q0.71875 0.390625 1.203125 0.890625q0.5 0.5 0.765625 1.140625q0.265625 0.625 0.265625 1.46875q0 1.578125 -0.984375 2.5625q-0.984375 0.984375 -2.71875 1.171875l0 1.84375l-1.46875 0l0 -1.84375q-1.90625 -0.203125 -2.953125 -1.34375q-1.03125 -1.15625 -1.03125 -3.046875l2.671875 0q0 1.09375 0.515625 1.6875q0.53125 0.59375 1.515625 0.59375q0.828125 0 1.296875 -0.4375q0.46875 -0.4375 0.46875 -1.15625zm13.453674 -1.375q0 2.40625 -1.03125 3.765625q-1.03125 1.34375 -2.875 1.34375q-1.640625 0 -2.609375 -1.25l-0.125 1.0625l-2.40625 0l0 -14.25l2.6875 0l0 5.109375q0.921875 -1.078125 2.4375 -1.078125q1.828125 0 2.875 1.34375q1.046875 1.34375 1.046875 3.796875l0 0.15625zm-2.6875 -0.203125q0 -1.515625 -0.484375 -2.21875q-0.484375 -0.703125 -1.4375 -0.703125q-1.28125 0 -1.75 1.046875l0 3.96875q0.484375 1.0625 1.78125 1.0625q1.296875 0 1.703125 -1.28125q0.1875 -0.625 0.1875 -1.875zm9.784485 -2.40625q-0.546875 -0.0625 -0.96875 -0.0625q-1.515625 0 -1.984375 1.03125l0 6.5625l-2.6875 0l0 -10.03125l2.53125 0l0.078125 1.1875q0.796875 -1.375 2.234375 -1.375q0.4375 0 0.828125 0.109375l-0.03125 2.578125zm0.7423096 2.421875q0 -1.5 0.578125 -2.65625q0.578125 -1.171875 1.65625 -1.8125q1.078125 -0.640625 2.515625 -0.640625q2.03125 0 3.3125 1.25q1.28125 1.234375 1.4375 3.359375l0.015625 0.6875q0 2.3125 -1.296875 3.71875q-1.28125 1.390625 -3.453125 1.390625q-2.171875 0 -3.46875 -1.390625q-1.296875 -1.390625 -1.296875 -3.78125l0 -0.125zm2.6875 0.1875q0 1.4375 0.53125 2.203125q0.546875 0.75 1.546875 0.75q0.96875 0 1.515625 -0.75q0.546875 -0.75 0.546875 -2.390625q0 -1.40625 -0.546875 -2.171875q-0.546875 -0.765625 -1.53125 -0.765625q-0.984375 0 -1.53125 0.765625q-0.53125 0.765625 -0.53125 2.359375zm14.095673 4.921875q-0.1875 -0.359375 -0.265625 -0.90625q-0.96875 1.09375 -2.53125 1.09375q-1.484375 0 -2.453125 -0.84375q-0.96875 -0.859375 -0.96875 -2.171875q0 -1.59375 1.1875 -2.4375q1.1875 -0.859375 3.421875 -0.859375l1.234375 0l0 -0.578125q0 -0.703125 -0.359375 -1.109375q-0.359375 -0.421875 -1.125 -0.421875q-0.671875 0 -1.0625 0.328125q-0.390625 0.3125 -0.390625 0.890625l-2.671875 0q0 -0.875 0.53125 -1.609375q0.546875 -0.75 1.515625 -1.171875q0.984375 -0.421875 2.21875 -0.421875q1.859375 0 2.9375 0.9375q1.09375 0.921875 1.09375 2.609375l0 4.359375q0.015625 1.421875 0.40625 2.15625l0 0.15625l-2.71875 0zm-2.21875 -1.859375q0.59375 0 1.09375 -0.265625q0.5 -0.265625 0.75 -0.71875l0 -1.71875l-1.0 0q-2.015625 0 -2.140625 1.390625l-0.015625 0.15625q0 0.5 0.34375 0.828125q0.359375 0.328125 0.96875 0.328125zm5.986603 -3.234375q0 -2.34375 1.046875 -3.734375q1.0625 -1.390625 2.890625 -1.390625q1.46875 0 2.421875 1.09375l0 -5.125l2.6875 0l0 14.25l-2.421875 0l-0.125 -1.0625q-1.0 1.25 -2.578125 1.25q-1.78125 0 -2.859375 -1.390625q-1.0625 -1.40625 -1.0625 -3.890625zm2.6875 0.1875q0 1.421875 0.484375 2.171875q0.5 0.75 1.4375 0.75q1.234375 0 1.75 -1.046875l0 -3.96875q-0.5 -1.046875 -1.734375 -1.046875q-1.9375 0 -1.9375 3.140625zm12.41861 2.9375q0.75 0 1.203125 -0.40625q0.46875 -0.421875 0.484375 -1.09375l2.515625 0q-0.015625 1.015625 -0.5625 1.875q-0.546875 0.84375 -1.5 1.3125q-0.9375 0.46875 -2.09375 0.46875q-2.15625 0 -3.40625 -1.359375q-1.234375 -1.375 -1.234375 -3.796875l0 -0.171875q0 -2.3125 1.234375 -3.6875q1.234375 -1.390625 3.390625 -1.390625q1.875 0 3.015625 1.078125q1.140625 1.0625 1.15625 2.84375l-2.515625 0q-0.015625 -0.78125 -0.484375 -1.265625q-0.453125 -0.484375 -1.21875 -0.484375q-0.9375 0 -1.421875 0.6875q-0.46875 0.671875 -0.46875 2.203125l0 0.28125q0 1.546875 0.46875 2.234375q0.46875 0.671875 1.4375 0.671875zm11.369568 1.96875q-0.1875 -0.359375 -0.265625 -0.90625q-0.96875 1.09375 -2.53125 1.09375q-1.484375 0 -2.453125 -0.84375q-0.96875 -0.859375 -0.96875 -2.171875q0 -1.59375 1.1875 -2.4375q1.1875 -0.859375 3.421875 -0.859375l1.234375 0l0 -0.578125q0 -0.703125 -0.359375 -1.109375q-0.359375 -0.421875 -1.125 -0.421875q-0.671875 0 -1.0625 0.328125q-0.390625 0.3125 -0.390625 0.890625l-2.671875 0q0 -0.875 0.53125 -1.609375q0.546875 -0.75 1.515625 -1.171875q0.984375 -0.421875 2.21875 -0.421875q1.859375 0 2.9375 0.9375q1.09375 0.921875 1.09375 2.609375l0 4.359375q0.015625 1.421875 0.40625 2.15625l0 0.15625l-2.71875 0zm-2.21875 -1.859375q0.59375 0 1.09375 -0.265625q0.5 -0.265625 0.75 -0.71875l0 -1.71875l-1.0 0q-2.015625 0 -2.140625 1.390625l-0.015625 0.15625q0 0.5 0.34375 0.828125q0.359375 0.328125 0.96875 0.328125zm11.845978 -0.921875q0 -0.484375 -0.484375 -0.765625q-0.484375 -0.28125 -1.5625 -0.5q-3.59375 -0.765625 -3.59375 -3.046875q0 -1.34375 1.109375 -2.234375q1.109375 -0.890625 2.90625 -0.890625q1.90625 0 3.046875 0.90625q1.15625 0.890625 1.15625 2.328125l-2.6875 0q0 -0.578125 -0.375 -0.953125q-0.359375 -0.375 -1.15625 -0.375q-0.671875 0 -1.046875 0.3125q-0.359375 0.296875 -0.359375 0.765625q0 0.453125 0.421875 0.734375q0.421875 0.265625 1.421875 0.46875q1.0 0.203125 1.6875 0.453125q2.125 0.765625 2.125 2.6875q0 1.375 -1.1875 2.234375q-1.171875 0.84375 -3.03125 0.84375q-1.265625 0 -2.25 -0.453125q-0.96875 -0.453125 -1.53125 -1.234375q-0.5625 -0.78125 -0.5625 -1.6875l2.546875 0q0.03125 0.703125 0.515625 1.09375q0.5 0.375 1.328125 0.375q0.765625 0 1.15625 -0.28125q0.40625 -0.296875 0.40625 -0.78125zm7.35791 -9.71875l0 2.46875l1.71875 0l0 1.953125l-1.71875 0l0 5.015625q0 0.5625 0.21875 0.8125q0.21875 0.234375 0.8125 0.234375q0.453125 0 0.796875 -0.078125l0 2.03125q-0.796875 0.25 -1.625 0.25q-2.828125 0 -2.875 -2.84375l0 -5.421875l-1.46875 0l0 -1.953125l1.46875 0l0 -2.46875l2.671875 0zm3.225647 7.0q0 -2.109375 0.5625 -4.03125q0.5625 -1.921875 1.65625 -3.40625q1.109375 -1.484375 2.40625 -2.0625l0.515625 1.453125q-1.359375 1.0 -2.125 3.109375q-0.75 2.09375 -0.75 4.890625l0 0.28125q0 2.8125 0.75 4.921875q0.75 2.109375 2.125 3.140625l-0.515625 1.421875q-1.265625 -0.5625 -2.359375 -2.0q-1.078125 -1.4375 -1.65625 -3.296875q-0.578125 -1.875 -0.609375 -3.921875l0 -0.5zm11.049744 0.21875q0 2.09375 -0.609375 4.046875q-0.609375 1.9375 -1.734375 3.421875q-1.125 1.484375 -2.421875 2.03125l-0.515625 -1.421875q1.3125 -0.984375 2.0625 -3.046875q0.765625 -2.078125 0.796875 -4.765625l0 -0.5q0 -2.765625 -0.765625 -4.875q-0.75 -2.125 -2.09375 -3.1875l0.515625 -1.421875q1.265625 0.5625 2.375 2.0q1.125 1.4375 1.734375 3.34375q0.625 1.90625 0.65625 3.953125l0 0.421875z" fill-rule="nonzero"></path><path fill="#9fc5e8" d="m48.356956 143.99606l0 0c0 -16.022781 12.989029 -29.01181 29.01181 -29.01181l611.45667 0c7.694458 0 15.073669 3.0565948 20.514465 8.49736c5.440796 5.4407806 8.4973755 12.820038 8.4973755 20.51445l0 321.31494c0 16.022797 -12.989014 29.01184 -29.01184 29.01184l-611.45667 0c-16.022781 0 -29.01181 -12.989044 -29.01181 -29.01184z" fill-rule="nonzero"></path><path stroke="#ffffff" stroke-width="2.0" stroke-linejoin="round" stroke-linecap="butt" d="m48.356956 143.99606l0 0c0 -16.022781 12.989029 -29.01181 29.01181 -29.01181l611.45667 0c7.694458 0 15.073669 3.0565948 20.514465 8.49736c5.440796 5.4407806 8.4973755 12.820038 8.4973755 20.51445l0 321.31494c0 16.022797 -12.989014 29.01184 -29.01184 29.01184l-611.45667 0c-16.022781 0 -29.01181 -12.989044 -29.01181 -29.01184z" fill-rule="nonzero"></path><path fill="#6fa8dc" d="m72.47507 320.83798l0 0c0 -20.50885 16.62571 -37.134583 37.13456 -37.134583l203.1167 0c9.848724 0 19.294037 3.912384 26.258118 10.876465c6.964081 6.964081 10.876465 16.409424 10.876465 26.258118l0 108.28204c0 20.50885 -16.625732 37.134583 -37.134583 37.134583l-203.1167 0l0 0c-20.50885 0 -37.13456 -16.625732 -37.13456 -37.134583z" fill-rule="nonzero"></path><path stroke="#ffffff" stroke-width="2.0" stroke-linejoin="round" stroke-linecap="butt" d="m72.47507 320.83798l0 0c0 -20.50885 16.62571 -37.134583 37.13456 -37.134583l203.1167 0c9.848724 0 19.294037 3.912384 26.258118 10.876465c6.964081 6.964081 10.876465 16.409424 10.876465 26.258118l0 108.28204c0 20.50885 -16.625732 37.134583 -37.134583 37.134583l-203.1167 0l0 0c-20.50885 0 -37.13456 -16.625732 -37.13456 -37.134583z" fill-rule="nonzero"></path><path fill="#6fa8dc" d="m412.4147 324.77927l0 0c0 -22.685577 18.39029 -41.075867 41.075836 -41.075867l195.23413 0c10.893982 0 21.341797 4.3276367 29.045044 12.030853c7.703186 7.7032166 12.030823 18.151001 12.030823 29.045013l0 100.399475c0 22.685577 -18.39032 41.075867 -41.075867 41.075867l-195.23413 0c-22.685547 0 -41.075836 -18.39029 -41.075836 -41.075867z" fill-rule="nonzero"></path><path stroke="#ffffff" stroke-width="2.0" stroke-linejoin="round" stroke-linecap="butt" d="m412.4147 324.77927l0 0c0 -22.685577 18.39029 -41.075867 41.075836 -41.075867l195.23413 0c10.893982 0 21.341797 4.3276367 29.045044 12.030853c7.703186 7.7032166 12.030823 18.151001 12.030823 29.045013l0 100.399475c0 22.685577 -18.39032 41.075867 -41.075867 41.075867l-195.23413 0c-22.685547 0 -41.075836 -18.39029 -41.075836 -41.075867z" fill-rule="nonzero"></path><path fill="#000000" fill-opacity="0.0" d="m80.47507 137.43832l235.3386 0l0 97.79527l-235.3386 0z" fill-rule="nonzero"></path><path fill="#000000" d="m97.67819 160.81145q0 -0.78125 -0.5625 -1.203125q-0.546875 -0.421875 -2.0 -0.890625q-1.4375 -0.46875 -2.28125 -0.921875q-2.296875 -1.25 -2.296875 -3.359375q0 -1.09375 0.609375 -1.953125q0.625 -0.859375 1.78125 -1.328125q1.15625 -0.484375 2.59375 -0.484375q1.4375 0 2.5625 0.53125q1.140625 0.515625 1.765625 1.46875q0.625 0.953125 0.625 2.171875l-2.78125 0q0 -0.9375 -0.59375 -1.4375q-0.578125 -0.515625 -1.625 -0.515625q-1.03125 0 -1.59375 0.4375q-0.5625 0.421875 -0.5625 1.125q0 0.65625 0.65625 1.109375q0.671875 0.4375 1.953125 0.828125q2.375 0.71875 3.453125 1.78125q1.09375 1.046875 1.09375 2.625q0 1.75 -1.328125 2.75q-1.328125 1.0 -3.5625 1.0q-1.5625 0 -2.84375 -0.5625q-1.28125 -0.578125 -1.953125 -1.5625q-0.671875 -1.0 -0.671875 -2.3125l2.796875 0q0 2.234375 2.671875 2.234375q0.984375 0 1.53125 -0.40625q0.5625 -0.40625 0.5625 -1.125zm8.468857 1.578125q0.75 0 1.203125 -0.40625q0.46875 -0.421875 0.484375 -1.09375l2.515625 0q-0.015625 1.015625 -0.5625 1.875q-0.546875 0.84375 -1.5 1.3125q-0.9375 0.46875 -2.09375 0.46875q-2.15625 0 -3.40625 -1.359375q-1.234375 -1.375 -1.234375 -3.796875l0 -0.171875q0 -2.3125 1.234375 -3.6875q1.234375 -1.390625 3.390625 -1.390625q1.875 0 3.015625 1.078125q1.140625 1.0625 1.15625 2.84375l-2.515625 0q-0.015625 -0.78125 -0.484375 -1.265625q-0.453125 -0.484375 -1.21875 -0.484375q-0.9375 0 -1.421875 0.6875q-0.46875 0.671875 -0.46875 2.203125l0 0.28125q0 1.546875 0.46875 2.234375q0.46875 0.671875 1.4375 0.671875zm5.135193 -3.140625q0 -1.5 0.578125 -2.65625q0.578125 -1.171875 1.65625 -1.8125q1.078125 -0.640625 2.515625 -0.640625q2.03125 0 3.3125 1.25q1.28125 1.234375 1.4375 3.359375l0.015625 0.6875q0 2.3125 -1.296875 3.71875q-1.28125 1.390625 -3.453125 1.390625q-2.171875 0 -3.46875 -1.390625q-1.296875 -1.390625 -1.296875 -3.78125l0 -0.125zm2.6875 0.1875q0 1.4375 0.53125 2.203125q0.546875 0.75 1.546875 0.75q0.96875 0 1.515625 -0.75q0.546875 -0.75 0.546875 -2.390625q0 -1.40625 -0.546875 -2.171875q-0.546875 -0.765625 -1.53125 -0.765625q-0.984375 0 -1.53125 0.765625q-0.53125 0.765625 -0.53125 2.359375zm17.314423 0q0 2.3125 -1.0625 3.71875q-1.046875 1.390625 -2.828125 1.390625q-1.53125 0 -2.453125 -1.0625l0 4.734375l-2.6875 0l0 -13.890625l2.484375 0l0.09375 0.96875q0.96875 -1.15625 2.546875 -1.15625q1.84375 0 2.875 1.375q1.03125 1.359375 1.03125 3.78125l0 0.140625zm-2.671875 -0.203125q0 -1.390625 -0.5 -2.15625q-0.5 -0.765625 -1.4375 -0.765625q-1.265625 0 -1.734375 0.96875l0 4.109375q0.484375 1.0 1.75 1.0q1.921875 0 1.921875 -3.15625zm8.768875 5.3125q-2.21875 0 -3.609375 -1.359375q-1.375 -1.359375 -1.375 -3.609375l0 -0.25q0 -1.515625 0.578125 -2.703125q0.59375 -1.203125 1.65625 -1.84375q1.078125 -0.640625 2.453125 -0.640625q2.046875 0 3.234375 1.296875q1.1875 1.296875 1.1875 3.6875l0 1.09375l-6.390625 0q0.125 0.984375 0.78125 1.578125q0.65625 0.59375 1.65625 0.59375q1.546875 0 2.421875 -1.125l1.3125 1.46875q-0.59375 0.859375 -1.625 1.34375q-1.03125 0.46875 -2.28125 0.46875zm-0.3125 -8.234375q-0.796875 0 -1.296875 0.53125q-0.5 0.53125 -0.625 1.546875l3.71875 0l0 -0.21875q-0.015625 -0.890625 -0.484375 -1.375q-0.453125 -0.484375 -1.3125 -0.484375z" fill-rule="nonzero"></path><path fill="#000000" d="m96.80319 182.81145q0 -0.765625 -0.421875 -1.21875q-0.421875 -0.453125 -1.4375 -0.828125q-1.0 -0.375 -1.734375 -0.75q-0.734375 -0.375 -1.265625 -0.859375q-0.515625 -0.5 -0.8125 -1.15625q-0.296875 -0.65625 -0.296875 -1.5625q0 -1.578125 1.0 -2.578125q1.015625 -1.0 2.671875 -1.171875l0 -1.984375l1.484375 0l0 2.015625q1.640625 0.234375 2.5625 1.375q0.9375 1.125 0.9375 2.9375l-2.6875 0q0 -1.109375 -0.46875 -1.65625q-0.453125 -0.5625 -1.21875 -0.5625q-0.765625 0 -1.1875 0.4375q-0.40625 0.4375 -0.40625 1.1875q0 0.703125 0.40625 1.140625q0.40625 0.421875 1.515625 0.875q1.109375 0.4375 1.8125 0.828125q0.71875 0.390625 1.203125 0.890625q0.5 0.5 0.765625 1.140625q0.265625 0.625 0.265625 1.46875q0 1.578125 -0.984375 2.5625q-0.984375 0.984375 -2.71875 1.171875l0 1.84375l-1.46875 0l0 -1.84375q-1.90625 -0.203125 -2.953125 -1.34375q-1.03125 -1.15625 -1.03125 -3.046875l2.671875 0q0 1.09375 0.515625 1.6875q0.53125 0.59375 1.515625 0.59375q0.828125 0 1.296875 -0.4375q0.46875 -0.4375 0.46875 -1.15625zm3.984909 -1.5625q0 -1.5 0.578125 -2.65625q0.578125 -1.171875 1.65625 -1.8125q1.078125 -0.640625 2.515625 -0.640625q2.03125 0 3.3125 1.25q1.28125 1.234375 1.4375 3.359375l0.015625 0.6875q0 2.3125 -1.296875 3.71875q-1.28125 1.390625 -3.453125 1.390625q-2.171875 0 -3.46875 -1.390625q-1.296875 -1.390625 -1.296875 -3.78125l0 -0.125zm2.6875 0.1875q0 1.4375 0.53125 2.203125q0.546875 0.75 1.546875 0.75q0.96875 0 1.515625 -0.75q0.546875 -0.75 0.546875 -2.390625q0 -1.40625 -0.546875 -2.171875q-0.546875 -0.765625 -1.53125 -0.765625q-0.984375 0 -1.53125 0.765625q-0.53125 0.765625 -0.53125 2.359375zm10.751923 -5.109375l0.078125 1.15625q1.078125 -1.34375 2.890625 -1.34375q1.59375 0 2.375 0.9375q0.78125 0.9375 0.796875 2.796875l0 6.484375l-2.6875 0l0 -6.421875q0 -0.859375 -0.375 -1.234375q-0.359375 -0.390625 -1.21875 -0.390625q-1.140625 0 -1.703125 0.96875l0 7.078125l-2.6875 0l0 -10.03125l2.53125 0zm8.104843 4.53125q0 -2.109375 0.5625 -4.03125q0.5625 -1.921875 1.65625 -3.40625q1.109375 -1.484375 2.40625 -2.0625l0.515625 1.453125q-1.359375 1.0 -2.125 3.109375q-0.75 2.09375 -0.75 4.890625l0 0.28125q0 2.8125 0.75 4.921875q0.75 2.109375 2.125 3.140625l-0.515625 1.421875q-1.265625 -0.5625 -2.359375 -2.0q-1.078125 -1.4375 -1.65625 -3.296875q-0.578125 -1.875 -0.609375 -3.921875l0 -0.5zm11.049728 5.6875q-2.21875 0 -3.609375 -1.359375q-1.375 -1.359375 -1.375 -3.609375l0 -0.25q0 -1.515625 0.578125 -2.703125q0.59375 -1.203125 1.65625 -1.84375q1.078125 -0.640625 2.453125 -0.640625q2.046875 0 3.234375 1.296875q1.1875 1.296875 1.1875 3.6875l0 1.09375l-6.390625 0q0.125 0.984375 0.78125 1.578125q0.65625 0.59375 1.65625 0.59375q1.546875 0 2.421875 -1.125l1.3125 1.46875q-0.59375 0.859375 -1.625 1.34375q-1.03125 0.46875 -2.28125 0.46875zm-0.3125 -8.234375q-0.796875 0 -1.296875 0.53125q-0.5 0.53125 -0.625 1.546875l3.71875 0l0 -0.21875q-0.015625 -0.890625 -0.484375 -1.375q-0.453125 -0.484375 -1.3125 -0.484375zm9.521713 4.765625l1.875 -6.75l2.796875 0l-3.390625 10.03125l-2.5625 0l-3.375 -10.03125l2.796875 0l1.859375 6.75zm10.303329 3.46875q-2.21875 0 -3.609375 -1.359375q-1.375 -1.359375 -1.375 -3.609375l0 -0.25q0 -1.515625 0.578125 -2.703125q0.59375 -1.203125 1.65625 -1.84375q1.078125 -0.640625 2.453125 -0.640625q2.046875 0 3.234375 1.296875q1.1875 1.296875 1.1875 3.6875l0 1.09375l-6.390625 0q0.125 0.984375 0.78125 1.578125q0.65625 0.59375 1.65625 0.59375q1.546875 0 2.421875 -1.125l1.3125 1.46875q-0.59375 0.859375 -1.625 1.34375q-1.03125 0.46875 -2.28125 0.46875zm-0.3125 -8.234375q-0.796875 0 -1.296875 0.53125q-0.5 0.53125 -0.625 1.546875l3.71875 0l0 -0.21875q-0.015625 -0.890625 -0.484375 -1.375q-0.453125 -0.484375 -1.3125 -0.484375zm8.240463 -1.984375l0.078125 1.15625q1.078125 -1.34375 2.890625 -1.34375q1.59375 0 2.375 0.9375q0.78125 0.9375 0.796875 2.796875l0 6.484375l-2.6875 0l0 -6.421875q0 -0.859375 -0.375 -1.234375q-0.359375 -0.390625 -1.21875 -0.390625q-1.140625 0 -1.703125 0.96875l0 7.078125l-2.6875 0l0 -10.03125l2.53125 0zm11.182968 -2.46875l0 2.46875l1.71875 0l0 1.953125l-1.71875 0l0 5.015625q0 0.5625 0.21875 0.8125q0.21875 0.234375 0.8125 0.234375q0.453125 0 0.796875 -0.078125l0 2.03125q-0.796875 0.25 -1.625 0.25q-2.828125 0 -2.875 -2.84375l0 -5.421875l-1.46875 0l0 -1.953125l1.46875 0l0 -2.46875l2.671875 0zm14.256897 12.5l-2.78125 0l-5.421875 -8.890625l0 8.890625l-2.78125 0l0 -13.515625l2.78125 0l5.4375 8.90625l0 -8.90625l2.765625 0l0 13.515625zm7.828583 0q-0.1875 -0.359375 -0.265625 -0.90625q-0.96875 1.09375 -2.53125 1.09375q-1.484375 0 -2.453125 -0.84375q-0.96875 -0.859375 -0.96875 -2.171875q0 -1.59375 1.1875 -2.4375q1.1875 -0.859375 3.421875 -0.859375l1.234375 0l0 -0.578125q0 -0.703125 -0.359375 -1.109375q-0.359375 -0.421875 -1.125 -0.421875q-0.671875 0 -1.0625 0.328125q-0.390625 0.3125 -0.390625 0.890625l-2.671875 0q0 -0.875 0.53125 -1.609375q0.546875 -0.75 1.515625 -1.171875q0.984375 -0.421875 2.21875 -0.421875q1.859375 0 2.9375 0.9375q1.09375 0.921875 1.09375 2.609375l0 4.359375q0.015625 1.421875 0.40625 2.15625l0 0.15625l-2.71875 0zm-2.21875 -1.859375q0.59375 0 1.09375 -0.265625q0.5 -0.265625 0.75 -0.71875l0 -1.71875l-1.0 0q-2.015625 0 -2.140625 1.390625l-0.015625 0.15625q0 0.5 0.34375 0.828125q0.359375 0.328125 0.96875 0.328125zm8.924103 -8.171875l0.078125 1.109375q1.0625 -1.296875 2.890625 -1.296875q1.9375 0 2.65625 1.53125q1.0625 -1.53125 3.015625 -1.53125q1.640625 0 2.4375 0.953125q0.796875 0.9375 0.796875 2.859375l0 6.40625l-2.6875 0l0 -6.40625q0 -0.84375 -0.34375 -1.234375q-0.328125 -0.40625 -1.171875 -0.40625q-1.203125 0 -1.671875 1.15625l0.015625 6.890625l-2.6875 0l0 -6.390625q0 -0.875 -0.34375 -1.265625q-0.34375 -0.390625 -1.171875 -0.390625q-1.140625 0 -1.640625 0.953125l0 7.09375l-2.6875 0l0 -10.03125l2.515625 0zm18.260513 10.21875q-2.21875 0 -3.609375 -1.359375q-1.375 -1.359375 -1.375 -3.609375l0 -0.25q0 -1.515625 0.578125 -2.703125q0.59375 -1.203125 1.65625 -1.84375q1.078125 -0.640625 2.453125 -0.640625q2.046875 0 3.234375 1.296875q1.1875 1.296875 1.1875 3.6875l0 1.09375l-6.390625 0q0.125 0.984375 0.78125 1.578125q0.65625 0.59375 1.65625 0.59375q1.546875 0 2.421875 -1.125l1.3125 1.46875q-0.59375 0.859375 -1.625 1.34375q-1.03125 0.46875 -2.28125 0.46875zm-0.3125 -8.234375q-0.796875 0 -1.296875 0.53125q-0.5 0.53125 -0.625 1.546875l3.71875 0l0 -0.21875q-0.015625 -0.890625 -0.484375 -1.375q-0.453125 -0.484375 -1.3125 -0.484375zm10.396713 2.765625q0 2.09375 -0.609375 4.046875q-0.609375 1.9375 -1.734375 3.421875q-1.125 1.484375 -2.421875 2.03125l-0.515625 -1.421875q1.3125 -0.984375 2.0625 -3.046875q0.765625 -2.078125 0.796875 -4.765625l0 -0.5q0 -2.765625 -0.765625 -4.875q-0.75 -2.125 -2.09375 -3.1875l0.515625 -1.421875q1.265625 0.5625 2.375 2.0q1.125 1.4375 1.734375 3.34375q0.625 1.90625 0.65625 3.953125l0 0.421875z" fill-rule="nonzero"></path><path fill="#000000" fill-opacity="0.0" d="m85.49869 301.73752l235.3386 0l0 97.79529l-235.3386 0z" fill-rule="nonzero"></path><path fill="#000000" d="m102.70181 325.11066q0 -0.78125 -0.5625 -1.203125q-0.546875 -0.421875 -2.0 -0.890625q-1.4375 -0.46875 -2.28125 -0.921875q-2.296875 -1.25 -2.296875 -3.359375q0 -1.09375 0.609375 -1.953125q0.625 -0.859375 1.78125 -1.328125q1.15625 -0.484375 2.59375 -0.484375q1.4375 0 2.5625 0.53125q1.140625 0.515625 1.765625 1.46875q0.625 0.953125 0.625 2.171875l-2.78125 0q0 -0.9375 -0.59375 -1.4375q-0.578125 -0.515625 -1.625 -0.515625q-1.03125 0 -1.59375 0.4375q-0.5625 0.421875 -0.5625 1.125q0 0.65625 0.65625 1.109375q0.671875 0.4375 1.953125 0.828125q2.375 0.71875 3.453125 1.78125q1.09375 1.046875 1.09375 2.625q0 1.75 -1.328125 2.75q-1.328125 1.0 -3.5625 1.0q-1.5625 0 -2.84375 -0.5625q-1.28125 -0.578125 -1.953125 -1.5625q-0.671875 -1.0 -0.671875 -2.3125l2.796875 0q0 2.234375 2.671875 2.234375q0.984375 0 1.53125 -0.40625q0.5625 -0.40625 0.5625 -1.125zm8.468857 1.578125q0.75 0 1.203125 -0.40625q0.46875 -0.421875 0.484375 -1.09375l2.515625 0q-0.015625 1.015625 -0.5625 1.875q-0.546875 0.84375 -1.5 1.3125q-0.9375 0.46875 -2.09375 0.46875q-2.15625 0 -3.40625 -1.359375q-1.234375 -1.375 -1.234375 -3.796875l0 -0.171875q0 -2.3125 1.234375 -3.6875q1.234375 -1.390625 3.390625 -1.390625q1.875 0 3.015625 1.078125q1.140625 1.0625 1.15625 2.84375l-2.515625 0q-0.015625 -0.78125 -0.484375 -1.265625q-0.453125 -0.484375 -1.21875 -0.484375q-0.9375 0 -1.421875 0.6875q-0.46875 0.671875 -0.46875 2.203125l0 0.28125q0 1.546875 0.46875 2.234375q0.46875 0.671875 1.4375 0.671875zm5.135193 -3.140625q0 -1.5 0.578125 -2.65625q0.578125 -1.171875 1.65625 -1.8125q1.078125 -0.640625 2.515625 -0.640625q2.03125 0 3.3125 1.25q1.28125 1.234375 1.4375 3.359375l0.015625 0.6875q0 2.3125 -1.296875 3.71875q-1.28125 1.390625 -3.453125 1.390625q-2.171875 0 -3.46875 -1.390625q-1.296875 -1.390625 -1.296875 -3.78125l0 -0.125zm2.6875 0.1875q0 1.4375 0.53125 2.203125q0.546875 0.75 1.546875 0.75q0.96875 0 1.515625 -0.75q0.546875 -0.75 0.546875 -2.390625q0 -1.40625 -0.546875 -2.171875q-0.546875 -0.765625 -1.53125 -0.765625q-0.984375 0 -1.53125 0.765625q-0.53125 0.765625 -0.53125 2.359375zm17.314423 0q0 2.3125 -1.0625 3.71875q-1.046875 1.390625 -2.828125 1.390625q-1.53125 0 -2.453125 -1.0625l0 4.734375l-2.6875 0l0 -13.890625l2.484375 0l0.09375 0.96875q0.96875 -1.15625 2.546875 -1.15625q1.84375 0 2.875 1.375q1.03125 1.359375 1.03125 3.78125l0 0.140625zm-2.671875 -0.203125q0 -1.390625 -0.5 -2.15625q-0.5 -0.765625 -1.4375 -0.765625q-1.265625 0 -1.734375 0.96875l0 4.109375q0.484375 1.0 1.75 1.0q1.921875 0 1.921875 -3.15625zm8.768875 5.3125q-2.21875 0 -3.609375 -1.359375q-1.375 -1.359375 -1.375 -3.609375l0 -0.25q0 -1.515625 0.578125 -2.703125q0.59375 -1.203125 1.65625 -1.84375q1.078125 -0.640625 2.453125 -0.640625q2.046875 0 3.234375 1.296875q1.1875 1.296875 1.1875 3.6875l0 1.09375l-6.390625 0q0.125 0.984375 0.78125 1.578125q0.65625 0.59375 1.65625 0.59375q1.546875 0 2.421875 -1.125l1.3125 1.46875q-0.59375 0.859375 -1.625 1.34375q-1.03125 0.46875 -2.28125 0.46875zm-0.3125 -8.234375q-0.796875 0 -1.296875 0.53125q-0.5 0.53125 -0.625 1.546875l3.71875 0l0 -0.21875q-0.015625 -0.890625 -0.484375 -1.375q-0.453125 -0.484375 -1.3125 -0.484375z" fill-rule="nonzero"></path><path fill="#000000" d="m101.82681 347.11066q0 -0.765625 -0.421875 -1.21875q-0.421875 -0.453125 -1.4375 -0.828125q-1.0 -0.375 -1.734375 -0.75q-0.734375 -0.375 -1.265625 -0.859375q-0.515625 -0.5 -0.8125 -1.15625q-0.296875 -0.65625 -0.296875 -1.5625q0 -1.578125 1.0 -2.578125q1.015625 -1.0 2.671875 -1.171875l0 -1.984375l1.484375 0l0 2.015625q1.640625 0.234375 2.5625 1.375q0.9375 1.125 0.9375 2.9375l-2.6875 0q0 -1.109375 -0.46875 -1.65625q-0.453125 -0.5625 -1.21875 -0.5625q-0.765625 0 -1.1875 0.4375q-0.40625 0.4375 -0.40625 1.1875q0 0.703125 0.40625 1.140625q0.40625 0.421875 1.515625 0.875q1.109375 0.4375 1.8125 0.828125q0.71875 0.390625 1.203125 0.890625q0.5 0.5 0.765625 1.140625q0.265625 0.625 0.265625 1.46875q0 1.578125 -0.984375 2.5625q-0.984375 0.984375 -2.71875 1.171875l0 1.84375l-1.46875 0l0 -1.84375q-1.90625 -0.203125 -2.953125 -1.34375q-1.03125 -1.15625 -1.03125 -3.046875l2.671875 0q0 1.09375 0.515625 1.6875q0.53125 0.59375 1.515625 0.59375q0.828125 0 1.296875 -0.4375q0.46875 -0.4375 0.46875 -1.15625zm3.984909 -1.5625q0 -1.5 0.578125 -2.65625q0.578125 -1.171875 1.65625 -1.8125q1.078125 -0.640625 2.515625 -0.640625q2.03125 0 3.3125 1.25q1.28125 1.234375 1.4375 3.359375l0.015625 0.6875q0 2.3125 -1.296875 3.71875q-1.28125 1.390625 -3.453125 1.390625q-2.171875 0 -3.46875 -1.390625q-1.296875 -1.390625 -1.296875 -3.78125l0 -0.125zm2.6875 0.1875q0 1.4375 0.53125 2.203125q0.546875 0.75 1.546875 0.75q0.96875 0 1.515625 -0.75q0.546875 -0.75 0.546875 -2.390625q0 -1.40625 -0.546875 -2.171875q-0.546875 -0.765625 -1.53125 -0.765625q-0.984375 0 -1.53125 0.765625q-0.53125 0.765625 -0.53125 2.359375zm10.751923 -5.109375l0.078125 1.15625q1.078125 -1.34375 2.890625 -1.34375q1.59375 0 2.375 0.9375q0.78125 0.9375 0.796875 2.796875l0 6.484375l-2.6875 0l0 -6.421875q0 -0.859375 -0.375 -1.234375q-0.359375 -0.390625 -1.21875 -0.390625q-1.140625 0 -1.703125 0.96875l0 7.078125l-2.6875 0l0 -10.03125l2.53125 0zm8.104843 4.53125q0 -2.109375 0.5625 -4.03125q0.5625 -1.921875 1.65625 -3.40625q1.109375 -1.484375 2.40625 -2.0625l0.515625 1.453125q-1.359375 1.0 -2.125 3.109375q-0.75 2.09375 -0.75 4.890625l0 0.28125q0 2.8125 0.75 4.921875q0.75 2.109375 2.125 3.140625l-0.515625 1.421875q-1.265625 -0.5625 -2.359375 -2.0q-1.078125 -1.4375 -1.65625 -3.296875q-0.578125 -1.875 -0.609375 -3.921875l0 -0.5zm11.049728 5.6875q-2.21875 0 -3.609375 -1.359375q-1.375 -1.359375 -1.375 -3.609375l0 -0.25q0 -1.515625 0.578125 -2.703125q0.59375 -1.203125 1.65625 -1.84375q1.078125 -0.640625 2.453125 -0.640625q2.046875 0 3.234375 1.296875q1.1875 1.296875 1.1875 3.6875l0 1.09375l-6.390625 0q0.125 0.984375 0.78125 1.578125q0.65625 0.59375 1.65625 0.59375q1.546875 0 2.421875 -1.125l1.3125 1.46875q-0.59375 0.859375 -1.625 1.34375q-1.03125 0.46875 -2.28125 0.46875zm-0.3125 -8.234375q-0.796875 0 -1.296875 0.53125q-0.5 0.53125 -0.625 1.546875l3.71875 0l0 -0.21875q-0.015625 -0.890625 -0.484375 -1.375q-0.453125 -0.484375 -1.3125 -0.484375zm9.521713 4.765625l1.875 -6.75l2.796875 0l-3.390625 10.03125l-2.5625 0l-3.375 -10.03125l2.796875 0l1.859375 6.75zm10.303329 3.46875q-2.21875 0 -3.609375 -1.359375q-1.375 -1.359375 -1.375 -3.609375l0 -0.25q0 -1.515625 0.578125 -2.703125q0.59375 -1.203125 1.65625 -1.84375q1.078125 -0.640625 2.453125 -0.640625q2.046875 0 3.234375 1.296875q1.1875 1.296875 1.1875 3.6875l0 1.09375l-6.390625 0q0.125 0.984375 0.78125 1.578125q0.65625 0.59375 1.65625 0.59375q1.546875 0 2.421875 -1.125l1.3125 1.46875q-0.59375 0.859375 -1.625 1.34375q-1.03125 0.46875 -2.28125 0.46875zm-0.3125 -8.234375q-0.796875 0 -1.296875 0.53125q-0.5 0.53125 -0.625 1.546875l3.71875 0l0 -0.21875q-0.015625 -0.890625 -0.484375 -1.375q-0.453125 -0.484375 -1.3125 -0.484375zm8.240463 -1.984375l0.078125 1.15625q1.078125 -1.34375 2.890625 -1.34375q1.59375 0 2.375 0.9375q0.78125 0.9375 0.796875 2.796875l0 6.484375l-2.6875 0l0 -6.421875q0 -0.859375 -0.375 -1.234375q-0.359375 -0.390625 -1.21875 -0.390625q-1.140625 0 -1.703125 0.96875l0 7.078125l-2.6875 0l0 -10.03125l2.53125 0zm11.182968 -2.46875l0 2.46875l1.71875 0l0 1.953125l-1.71875 0l0 5.015625q0 0.5625 0.21875 0.8125q0.21875 0.234375 0.8125 0.234375q0.453125 0 0.796875 -0.078125l0 2.03125q-0.796875 0.25 -1.625 0.25q-2.828125 0 -2.875 -2.84375l0 -5.421875l-1.46875 0l0 -1.953125l1.46875 0l0 -2.46875l2.671875 0zm14.256897 12.5l-2.78125 0l-5.421875 -8.890625l0 8.890625l-2.78125 0l0 -13.515625l2.78125 0l5.4375 8.90625l0 -8.90625l2.765625 0l0 13.515625zm7.828583 0q-0.1875 -0.359375 -0.265625 -0.90625q-0.96875 1.09375 -2.53125 1.09375q-1.484375 0 -2.453125 -0.84375q-0.96875 -0.859375 -0.96875 -2.171875q0 -1.59375 1.1875 -2.4375q1.1875 -0.859375 3.421875 -0.859375l1.234375 0l0 -0.578125q0 -0.703125 -0.359375 -1.109375q-0.359375 -0.421875 -1.125 -0.421875q-0.671875 0 -1.0625 0.328125q-0.390625 0.3125 -0.390625 0.890625l-2.671875 0q0 -0.875 0.53125 -1.609375q0.546875 -0.75 1.515625 -1.171875q0.984375 -0.421875 2.21875 -0.421875q1.859375 0 2.9375 0.9375q1.09375 0.921875 1.09375 2.609375l0 4.359375q0.015625 1.421875 0.40625 2.15625l0 0.15625l-2.71875 0zm-2.21875 -1.859375q0.59375 0 1.09375 -0.265625q0.5 -0.265625 0.75 -0.71875l0 -1.71875l-1.0 0q-2.015625 0 -2.140625 1.390625l-0.015625 0.15625q0 0.5 0.34375 0.828125q0.359375 0.328125 0.96875 0.328125zm8.924103 -8.171875l0.078125 1.109375q1.0625 -1.296875 2.890625 -1.296875q1.9375 0 2.65625 1.53125q1.0625 -1.53125 3.015625 -1.53125q1.640625 0 2.4375 0.953125q0.796875 0.9375 0.796875 2.859375l0 6.40625l-2.6875 0l0 -6.40625q0 -0.84375 -0.34375 -1.234375q-0.328125 -0.40625 -1.171875 -0.40625q-1.203125 0 -1.671875 1.15625l0.015625 6.890625l-2.6875 0l0 -6.390625q0 -0.875 -0.34375 -1.265625q-0.34375 -0.390625 -1.171875 -0.390625q-1.140625 0 -1.640625 0.953125l0 7.09375l-2.6875 0l0 -10.03125l2.515625 0zm18.260513 10.21875q-2.21875 0 -3.609375 -1.359375q-1.375 -1.359375 -1.375 -3.609375l0 -0.25q0 -1.515625 0.578125 -2.703125q0.59375 -1.203125 1.65625 -1.84375q1.078125 -0.640625 2.453125 -0.640625q2.046875 0 3.234375 1.296875q1.1875 1.296875 1.1875 3.6875l0 1.09375l-6.390625 0q0.125 0.984375 0.78125 1.578125q0.65625 0.59375 1.65625 0.59375q1.546875 0 2.421875 -1.125l1.3125 1.46875q-0.59375 0.859375 -1.625 1.34375q-1.03125 0.46875 -2.28125 0.46875zm-0.3125 -8.234375q-0.796875 0 -1.296875 0.53125q-0.5 0.53125 -0.625 1.546875l3.71875 0l0 -0.21875q-0.015625 -0.890625 -0.484375 -1.375q-0.453125 -0.484375 -1.3125 -0.484375zm10.396713 2.765625q0 2.09375 -0.609375 4.046875q-0.609375 1.9375 -1.734375 3.421875q-1.125 1.484375 -2.421875 2.03125l-0.515625 -1.421875q1.3125 -0.984375 2.0625 -3.046875q0.765625 -2.078125 0.796875 -4.765625l0 -0.5q0 -2.765625 -0.765625 -4.875q-0.75 -2.125 -2.09375 -3.1875l0.515625 -1.421875q1.265625 0.5625 2.375 2.0q1.125 1.4375 1.734375 3.34375q0.625 1.90625 0.65625 3.953125l0 0.421875z" fill-rule="nonzero"></path><path fill="#000000" fill-opacity="0.0" d="m441.43832 301.73752l235.3386 0l0 97.79529l-235.3386 0z" fill-rule="nonzero"></path><path fill="#000000" d="m458.64145 325.11066q0 -0.78125 -0.5625 -1.203125q-0.546875 -0.421875 -2.0 -0.890625q-1.4375 -0.46875 -2.28125 -0.921875q-2.296875 -1.25 -2.296875 -3.359375q0 -1.09375 0.609375 -1.953125q0.625 -0.859375 1.78125 -1.328125q1.15625 -0.484375 2.59375 -0.484375q1.4375 0 2.5625 0.53125q1.140625 0.515625 1.765625 1.46875q0.625 0.953125 0.625 2.171875l-2.78125 0q0 -0.9375 -0.59375 -1.4375q-0.578125 -0.515625 -1.625 -0.515625q-1.03125 0 -1.59375 0.4375q-0.5625 0.421875 -0.5625 1.125q0 0.65625 0.65625 1.109375q0.671875 0.4375 1.953125 0.828125q2.375 0.71875 3.453125 1.78125q1.09375 1.046875 1.09375 2.625q0 1.75 -1.328125 2.75q-1.328125 1.0 -3.5625 1.0q-1.5625 0 -2.84375 -0.5625q-1.28125 -0.578125 -1.953125 -1.5625q-0.671875 -1.0 -0.671875 -2.3125l2.796875 0q0 2.234375 2.671875 2.234375q0.984375 0 1.53125 -0.40625q0.5625 -0.40625 0.5625 -1.125zm8.468842 1.578125q0.75 0 1.203125 -0.40625q0.46875 -0.421875 0.484375 -1.09375l2.515625 0q-0.015625 1.015625 -0.5625 1.875q-0.546875 0.84375 -1.5 1.3125q-0.9375 0.46875 -2.09375 0.46875q-2.15625 0 -3.40625 -1.359375q-1.234375 -1.375 -1.234375 -3.796875l0 -0.171875q0 -2.3125 1.234375 -3.6875q1.234375 -1.390625 3.390625 -1.390625q1.875 0 3.015625 1.078125q1.140625 1.0625 1.15625 2.84375l-2.515625 0q-0.015625 -0.78125 -0.484375 -1.265625q-0.453125 -0.484375 -1.21875 -0.484375q-0.9375 0 -1.421875 0.6875q-0.46875 0.671875 -0.46875 2.203125l0 0.28125q0 1.546875 0.46875 2.234375q0.46875 0.671875 1.4375 0.671875zm5.135193 -3.140625q0 -1.5 0.578125 -2.65625q0.578125 -1.171875 1.65625 -1.8125q1.078125 -0.640625 2.515625 -0.640625q2.03125 0 3.3125 1.25q1.28125 1.234375 1.4375 3.359375l0.015625 0.6875q0 2.3125 -1.296875 3.71875q-1.28125 1.390625 -3.453125 1.390625q-2.171875 0 -3.46875 -1.390625q-1.296875 -1.390625 -1.296875 -3.78125l0 -0.125zm2.6875 0.1875q0 1.4375 0.53125 2.203125q0.546875 0.75 1.546875 0.75q0.96875 0 1.515625 -0.75q0.546875 -0.75 0.546875 -2.390625q0 -1.40625 -0.546875 -2.171875q-0.546875 -0.765625 -1.53125 -0.765625q-0.984375 0 -1.53125 0.765625q-0.53125 0.765625 -0.53125 2.359375zm17.314423 0q0 2.3125 -1.0625 3.71875q-1.046875 1.390625 -2.828125 1.390625q-1.53125 0 -2.453125 -1.0625l0 4.734375l-2.6875 0l0 -13.890625l2.484375 0l0.09375 0.96875q0.96875 -1.15625 2.546875 -1.15625q1.84375 0 2.875 1.375q1.03125 1.359375 1.03125 3.78125l0 0.140625zm-2.671875 -0.203125q0 -1.390625 -0.5 -2.15625q-0.5 -0.765625 -1.4375 -0.765625q-1.265625 0 -1.734375 0.96875l0 4.109375q0.484375 1.0 1.75 1.0q1.921875 0 1.921875 -3.15625zm8.76889 5.3125q-2.21875 0 -3.609375 -1.359375q-1.375 -1.359375 -1.375 -3.609375l0 -0.25q0 -1.515625 0.578125 -2.703125q0.59375 -1.203125 1.65625 -1.84375q1.078125 -0.640625 2.453125 -0.640625q2.046875 0 3.234375 1.296875q1.1875 1.296875 1.1875 3.6875l0 1.09375l-6.390625 0q0.125 0.984375 0.78125 1.578125q0.65625 0.59375 1.65625 0.59375q1.546875 0 2.421875 -1.125l1.3125 1.46875q-0.59375 0.859375 -1.625 1.34375q-1.03125 0.46875 -2.28125 0.46875zm-0.3125 -8.234375q-0.796875 0 -1.296875 0.53125q-0.5 0.53125 -0.625 1.546875l3.71875 0l0 -0.21875q-0.015625 -0.890625 -0.484375 -1.375q-0.453125 -0.484375 -1.3125 -0.484375zm104.98547 4.5q0 -0.765625 -0.421875 -1.21875q-0.421875 -0.453125 -1.4375 -0.828125q-1.0 -0.375 -1.734375 -0.75q-0.734375 -0.375 -1.265625 -0.859375q-0.515625 -0.5 -0.8125 -1.15625q-0.296875 -0.65625 -0.296875 -1.5625q0 -1.578125 1.0 -2.578125q1.015625 -1.0 2.671875 -1.171875l0 -1.984375l1.484375 0l0 2.015625q1.640625 0.234375 2.5625 1.375q0.9375 1.125 0.9375 2.9375l-2.6875 0q0 -1.109375 -0.46875 -1.65625q-0.453125 -0.5625 -1.21875 -0.5625q-0.765625 0 -1.1875 0.4375q-0.40625 0.4375 -0.40625 1.1875q0 0.703125 0.40625 1.140625q0.40625 0.421875 1.515625 0.875q1.109375 0.4375 1.8125 0.828125q0.71875 0.390625 1.203125 0.890625q0.5 0.5 0.765625 1.140625q0.265625 0.625 0.265625 1.46875q0 1.578125 -0.984375 2.5625q-0.984375 0.984375 -2.71875 1.171875l0 1.84375l-1.46875 0l0 -1.84375q-1.90625 -0.203125 -2.953125 -1.34375q-1.03125 -1.15625 -1.03125 -3.046875l2.671875 0q0 1.09375 0.515625 1.6875q0.53125 0.59375 1.515625 0.59375q0.828125 0 1.296875 -0.4375q0.46875 -0.4375 0.46875 -1.15625zm9.031738 3.734375q-2.21875 0 -3.609375 -1.359375q-1.375 -1.359375 -1.375 -3.609375l0 -0.25q0 -1.515625 0.578125 -2.703125q0.59375 -1.203125 1.65625 -1.84375q1.078125 -0.640625 2.453125 -0.640625q2.046875 0 3.234375 1.296875q1.1875 1.296875 1.1875 3.6875l0 1.09375l-6.390625 0q0.125 0.984375 0.78125 1.578125q0.65625 0.59375 1.65625 0.59375q1.546875 0 2.421875 -1.125l1.3125 1.46875q-0.59375 0.859375 -1.625 1.34375q-1.03125 0.46875 -2.28125 0.46875zm-0.3125 -8.234375q-0.796875 0 -1.296875 0.53125q-0.5 0.53125 -0.625 1.546875l3.71875 0l0 -0.21875q-0.015625 -0.890625 -0.484375 -1.375q-0.453125 -0.484375 -1.3125 -0.484375zm8.2873535 -1.984375l0.078125 1.109375q1.0625 -1.296875 2.890625 -1.296875q1.9375 0 2.65625 1.53125q1.0625 -1.53125 3.015625 -1.53125q1.640625 0 2.4375 0.953125q0.796875 0.9375 0.796875 2.859375l0 6.40625l-2.6875 0l0 -6.40625q0 -0.84375 -0.34375 -1.234375q-0.328125 -0.40625 -1.171875 -0.40625q-1.203125 0 -1.671875 1.15625l0.015625 6.890625l-2.6875 0l0 -6.390625q0 -0.875 -0.34375 -1.265625q-0.34375 -0.390625 -1.171875 -0.390625q-1.140625 0 -1.640625 0.953125l0 7.09375l-2.6875 0l0 -10.03125l2.515625 0zm16.463623 10.03125l-2.6875 0l0 -10.03125l2.6875 0l0 10.03125zm-2.84375 -12.640625q0 -0.59375 0.390625 -0.984375q0.40625 -0.390625 1.109375 -0.390625q0.6875 0 1.09375 0.390625q0.40625 0.390625 0.40625 0.984375q0 0.609375 -0.421875 1.0q-0.40625 0.390625 -1.078125 0.390625q-0.671875 0 -1.09375 -0.390625q-0.40625 -0.390625 -0.40625 -1.0zm8.165222 0.140625l0 2.46875l1.71875 0l0 1.953125l-1.71875 0l0 5.015625q0 0.5625 0.21875 0.8125q0.21875 0.234375 0.8125 0.234375q0.453125 0 0.796875 -0.078125l0 2.03125q-0.796875 0.25 -1.625 0.25q-2.828125 0 -2.875 -2.84375l0 -5.421875l-1.46875 0l0 -1.953125l1.46875 0l0 -2.46875l2.671875 0z" fill-rule="nonzero"></path><path fill="#000000" d="m457.76645 347.11066q0 -0.765625 -0.421875 -1.21875q-0.421875 -0.453125 -1.4375 -0.828125q-1.0 -0.375 -1.734375 -0.75q-0.734375 -0.375 -1.265625 -0.859375q-0.515625 -0.5 -0.8125 -1.15625q-0.296875 -0.65625 -0.296875 -1.5625q0 -1.578125 1.0 -2.578125q1.015625 -1.0 2.671875 -1.171875l0 -1.984375l1.484375 0l0 2.015625q1.640625 0.234375 2.5625 1.375q0.9375 1.125 0.9375 2.9375l-2.6875 0q0 -1.109375 -0.46875 -1.65625q-0.453125 -0.5625 -1.21875 -0.5625q-0.765625 0 -1.1875 0.4375q-0.40625 0.4375 -0.40625 1.1875q0 0.703125 0.40625 1.140625q0.40625 0.421875 1.515625 0.875q1.109375 0.4375 1.8125 0.828125q0.71875 0.390625 1.203125 0.890625q0.5 0.5 0.765625 1.140625q0.265625 0.625 0.265625 1.46875q0 1.578125 -0.984375 2.5625q-0.984375 0.984375 -2.71875 1.171875l0 1.84375l-1.46875 0l0 -1.84375q-1.90625 -0.203125 -2.953125 -1.34375q-1.03125 -1.15625 -1.03125 -3.046875l2.671875 0q0 1.09375 0.515625 1.6875q0.53125 0.59375 1.515625 0.59375q0.828125 0 1.296875 -0.4375q0.46875 -0.4375 0.46875 -1.15625zm3.9848938 -1.5625q0 -1.5 0.578125 -2.65625q0.578125 -1.171875 1.65625 -1.8125q1.078125 -0.640625 2.515625 -0.640625q2.03125 0 3.3125 1.25q1.28125 1.234375 1.4375 3.359375l0.015625 0.6875q0 2.3125 -1.296875 3.71875q-1.28125 1.390625 -3.453125 1.390625q-2.171875 0 -3.46875 -1.390625q-1.296875 -1.390625 -1.296875 -3.78125l0 -0.125zm2.6875 0.1875q0 1.4375 0.53125 2.203125q0.546875 0.75 1.546875 0.75q0.96875 0 1.515625 -0.75q0.546875 -0.75 0.546875 -2.390625q0 -1.40625 -0.546875 -2.171875q-0.546875 -0.765625 -1.53125 -0.765625q-0.984375 0 -1.53125 0.765625q-0.53125 0.765625 -0.53125 2.359375zm10.751923 -5.109375l0.078125 1.15625q1.078125 -1.34375 2.890625 -1.34375q1.59375 0 2.375 0.9375q0.78125 0.9375 0.796875 2.796875l0 6.484375l-2.6875 0l0 -6.421875q0 -0.859375 -0.375 -1.234375q-0.359375 -0.390625 -1.21875 -0.390625q-1.140625 0 -1.703125 0.96875l0 7.078125l-2.6875 0l0 -10.03125l2.53125 0zm8.104858 4.53125q0 -2.109375 0.5625 -4.03125q0.5625 -1.921875 1.65625 -3.40625q1.109375 -1.484375 2.40625 -2.0625l0.515625 1.453125q-1.359375 1.0 -2.125 3.109375q-0.75 2.09375 -0.75 4.890625l0 0.28125q0 2.8125 0.75 4.921875q0.75 2.109375 2.125 3.140625l-0.515625 1.421875q-1.265625 -0.5625 -2.359375 -2.0q-1.078125 -1.4375 -1.65625 -3.296875q-0.578125 -1.875 -0.609375 -3.921875l0 -0.5zm11.049713 5.6875q-2.21875 0 -3.609375 -1.359375q-1.375 -1.359375 -1.375 -3.609375l0 -0.25q0 -1.515625 0.578125 -2.703125q0.59375 -1.203125 1.65625 -1.84375q1.078125 -0.640625 2.453125 -0.640625q2.046875 0 3.234375 1.296875q1.1875 1.296875 1.1875 3.6875l0 1.09375l-6.390625 0q0.125 0.984375 0.78125 1.578125q0.65625 0.59375 1.65625 0.59375q1.546875 0 2.421875 -1.125l1.3125 1.46875q-0.59375 0.859375 -1.625 1.34375q-1.03125 0.46875 -2.28125 0.46875zm-0.3125 -8.234375q-0.796875 0 -1.296875 0.53125q-0.5 0.53125 -0.625 1.546875l3.71875 0l0 -0.21875q-0.015625 -0.890625 -0.484375 -1.375q-0.453125 -0.484375 -1.3125 -0.484375zm9.5217285 4.765625l1.875 -6.75l2.796875 0l-3.390625 10.03125l-2.5625 0l-3.375 -10.03125l2.796875 0l1.859375 6.75zm10.303345 3.46875q-2.2187805 0 -3.6094055 -1.359375q-1.375 -1.359375 -1.375 -3.609375l0 -0.25q0 -1.515625 0.578125 -2.703125q0.59375 -1.203125 1.65625 -1.84375q1.0781555 -0.640625 2.4531555 -0.640625q2.046875 0 3.234375 1.296875q1.1875 1.296875 1.1875 3.6875l0 1.09375l-6.3906555 0q0.125 0.984375 0.7812805 1.578125q0.65625 0.59375 1.65625 0.59375q1.546875 0 2.421875 -1.125l1.3125 1.46875q-0.59375 0.859375 -1.625 1.34375q-1.03125 0.46875 -2.28125 0.46875zm-0.3125 -8.234375q-0.796875 0 -1.296875 0.53125q-0.5000305 0.53125 -0.6250305 1.546875l3.7187805 0l0 -0.21875q-0.015625 -0.890625 -0.484375 -1.375q-0.453125 -0.484375 -1.3125 -0.484375zm8.2404175 -1.984375l0.078125 1.15625q1.078125 -1.34375 2.890625 -1.34375q1.59375 0 2.375 0.9375q0.78125 0.9375 0.796875 2.796875l0 6.484375l-2.6875 0l0 -6.421875q0 -0.859375 -0.375 -1.234375q-0.359375 -0.390625 -1.21875 -0.390625q-1.140625 0 -1.703125 0.96875l0 7.078125l-2.6875 0l0 -10.03125l2.53125 0zm11.182983 -2.46875l0 2.46875l1.71875 0l0 1.953125l-1.71875 0l0 5.015625q0 0.5625 0.21875 0.8125q0.21875 0.234375 0.8125 0.234375q0.453125 0 0.796875 -0.078125l0 2.03125q-0.796875 0.25 -1.625 0.25q-2.828125 0 -2.875 -2.84375l0 -5.421875l-1.46875 0l0 -1.953125l1.46875 0l0 -2.46875l2.671875 0zm14.256897 12.5l-2.78125 0l-5.421875 -8.890625l0 8.890625l-2.78125 0l0 -13.515625l2.78125 0l5.4375 8.90625l0 -8.90625l2.765625 0l0 13.515625zm7.8286133 0q-0.1875 -0.359375 -0.265625 -0.90625q-0.96875 1.09375 -2.53125 1.09375q-1.484375 0 -2.453125 -0.84375q-0.96875 -0.859375 -0.96875 -2.171875q0 -1.59375 1.1875 -2.4375q1.1875 -0.859375 3.421875 -0.859375l1.234375 0l0 -0.578125q0 -0.703125 -0.359375 -1.109375q-0.359375 -0.421875 -1.125 -0.421875q-0.671875 0 -1.0625 0.328125q-0.390625 0.3125 -0.390625 0.890625l-2.671875 0q0 -0.875 0.53125 -1.609375q0.546875 -0.75 1.515625 -1.171875q0.984375 -0.421875 2.21875 -0.421875q1.859375 0 2.9375 0.9375q1.09375 0.921875 1.09375 2.609375l0 4.359375q0.015625 1.421875 0.40625 2.15625l0 0.15625l-2.71875 0zm-2.21875 -1.859375q0.59375 0 1.09375 -0.265625q0.5 -0.265625 0.75 -0.71875l0 -1.71875l-1.0 0q-2.015625 0 -2.140625 1.390625l-0.015625 0.15625q0 0.5 0.34375 0.828125q0.359375 0.328125 0.96875 0.328125zm8.924072 -8.171875l0.078125 1.109375q1.0625 -1.296875 2.890625 -1.296875q1.9375 0 2.65625 1.53125q1.0625 -1.53125 3.015625 -1.53125q1.640625 0 2.4375 0.953125q0.796875 0.9375 0.796875 2.859375l0 6.40625l-2.6875 0l0 -6.40625q0 -0.84375 -0.34375 -1.234375q-0.328125 -0.40625 -1.171875 -0.40625q-1.203125 0 -1.671875 1.15625l0.015625 6.890625l-2.6875 0l0 -6.390625q0 -0.875 -0.34375 -1.265625q-0.34375 -0.390625 -1.171875 -0.390625q-1.140625 0 -1.640625 0.953125l0 7.09375l-2.6875 0l0 -10.03125l2.515625 0zm18.260498 10.21875q-2.21875 0 -3.609375 -1.359375q-1.375 -1.359375 -1.375 -3.609375l0 -0.25q0 -1.515625 0.578125 -2.703125q0.59375 -1.203125 1.65625 -1.84375q1.078125 -0.640625 2.453125 -0.640625q2.046875 0 3.234375 1.296875q1.1875 1.296875 1.1875 3.6875l0 1.09375l-6.390625 0q0.125 0.984375 0.78125 1.578125q0.65625 0.59375 1.65625 0.59375q1.546875 0 2.421875 -1.125l1.3125 1.46875q-0.59375 0.859375 -1.625 1.34375q-1.03125 0.46875 -2.28125 0.46875zm-0.3125 -8.234375q-0.796875 0 -1.296875 0.53125q-0.5 0.53125 -0.625 1.546875l3.71875 0l0 -0.21875q-0.015625 -0.890625 -0.484375 -1.375q-0.453125 -0.484375 -1.3125 -0.484375zm10.3967285 2.765625q0 2.09375 -0.609375 4.046875q-0.609375 1.9375 -1.734375 3.421875q-1.125 1.484375 -2.421875 2.03125l-0.515625 -1.421875q1.3125 -0.984375 2.0625 -3.046875q0.765625 -2.078125 0.796875 -4.765625l0 -0.5q0 -2.765625 -0.765625 -4.875q-0.75 -2.125 -2.09375 -3.1875l0.515625 -1.421875q1.265625 0.5625 2.375 2.0q1.125 1.4375 1.734375 3.34375q0.625 1.90625 0.65625 3.953125l0 0.421875z" fill-rule="nonzero"></path><path fill="#000000" fill-opacity="0.0" d="m361.07462 85.4916l0 121.448814" fill-rule="nonzero"></path><path stroke="#000000" stroke-width="2.0" stroke-linejoin="round" stroke-linecap="butt" d="m361.07465 85.4916l0 109.448814" fill-rule="evenodd"></path><path fill="#000000" stroke="#000000" stroke-width="2.0" stroke-linecap="butt" d="m357.77118 194.94041l3.3034668 9.076187l3.3034668 -9.076187z" fill-rule="evenodd"></path><path fill="#000000" fill-opacity="0.0" d="m354.62766 211.69965l-135.40158 108.53543" fill-rule="nonzero"></path><path stroke="#000000" stroke-width="2.0" stroke-linejoin="round" stroke-linecap="butt" d="m354.62766 211.69966l-126.03839 101.030045" fill-rule="evenodd"></path><path fill="#000000" stroke="#000000" stroke-width="2.0" stroke-linecap="butt" d="m226.52312 310.15213l-5.0157013 8.254272l9.147995 -3.0990906z" fill-rule="evenodd"></path><path fill="#000000" fill-opacity="0.0" d="m614.68506 299.8189l-1.0708618 -101.00789" fill-rule="nonzero"></path><path stroke="#000000" stroke-width="2.0" stroke-linejoin="round" stroke-linecap="butt" d="m614.68506 299.8189l-0.94366455 -89.00856" fill-rule="evenodd"></path><path fill="#000000" stroke="#000000" stroke-width="2.0" stroke-linecap="butt" d="m617.0447 210.77533l-3.3995361 -9.040665l-3.2070312 9.1107025z" fill-rule="evenodd"></path><path fill="#000000" fill-opacity="0.0" d="m613.6116 198.80577l0 -127.874016" fill-rule="nonzero"></path><path stroke="#000000" stroke-width="2.0" stroke-linejoin="round" stroke-linecap="butt" d="m613.6116 198.80577l0 -115.874016" fill-rule="evenodd"></path><path fill="#000000" stroke="#000000" stroke-width="2.0" stroke-linecap="butt" d="m616.91504 82.931755l-3.3034668 -9.076195l-3.3034668 9.076195z" fill-rule="evenodd"></path><path fill="#000000" fill-opacity="0.0" d="m366.4462 211.69965l155.811 107.46457" fill-rule="nonzero"></path><path stroke="#000000" stroke-width="2.0" stroke-linejoin="round" stroke-linecap="butt" d="m366.4462 211.69966l145.93277 100.65138" fill-rule="evenodd"></path><path fill="#000000" stroke="#000000" stroke-width="2.0" stroke-linecap="butt" d="m510.50333 315.07043l9.347015 2.4337463l-5.595825 -7.8724976z" fill-rule="evenodd"></path></g></svg>

