<?xml version="1.0" standalone="yes"?>

<svg version="1.1" viewBox="0.0 0.0 716.0 382.0" fill="none" stroke="none" stroke-linecap="square" stroke-miterlimit="10" xmlns="http://www.w3.org/2000/svg" xmlns:xlink="http://www.w3.org/1999/xlink"><clipPath id="p.0"><path d="m0 0l716.0 0l0 382.0l-716.0 0l0 -382.0z" clip-rule="nonzero"></path></clipPath><g clip-path="url(#p.0)"><path fill="#000000" fill-opacity="0.0" d="m0 0l716.4514 0l0 382.02362l-716.4514 0z" fill-rule="nonzero"></path><path fill="#3c78d8" d="m237.49606 12.714044l0 0c0 -3.6587791 2.9660187 -6.624805 6.6248016 -6.624805l231.75826 0c1.757019 0 3.4420776 0.6979685 4.6844482 1.9403605c1.2424011 1.2423916 1.9403687 2.9274368 1.9403687 4.6844444l0 26.498425c0 3.6587753 -2.966034 6.6248016 -6.624817 6.6248016l-231.75826 0c-3.658783 0 -6.6248016 -2.9660263 -6.6248016 -6.6248016z" fill-rule="nonzero"></path><path fill="#ffffff" d="m332.80252 19.367628l4.40625 11.03125l4.421875 -11.03125l2.3125 0l0 13.515627l-1.78125 0l0 -5.265627l0.15625 -5.671875l-4.421875 10.937502l-1.375 0l-4.421875 -10.906252l0.171875 5.640625l0 5.265627l-1.78125 0l0 -13.515627l2.3125 0zm13.256531 8.40625q0 -1.484375 0.578125 -2.65625q0.578125 -1.171875 1.609375 -1.8125q1.046875 -0.640625 2.375 -0.640625q2.046875 0 3.3125 1.421875q1.265625 1.40625 1.265625 3.765625l0 0.125q0 1.46875 -0.5625 2.640625q-0.5625 1.15625 -1.609375 1.8125019q-1.046875 0.640625 -2.390625 0.640625q-2.046875 0 -3.3125 -1.4218769q-1.265625 -1.421875 -1.265625 -3.75l0 -0.125zm1.71875 0.203125q0 1.671875 0.78125 2.6875q0.78125 1.0 2.078125 1.0q1.296875 0 2.0625 -1.015625q0.78125 -1.03125 0.78125 -2.875q0 -1.65625 -0.78125 -2.671875q-0.78125 -1.03125 -2.078125 -1.03125q-1.28125 0 -2.0625 1.015625q-0.78125 1.0 -0.78125 2.890625zm8.952393 -0.203125q0 -2.296875 1.09375 -3.703125q1.109375 -1.40625 2.875 -1.40625q1.765625 0 2.796875 1.203125l0 -5.234375l1.71875 0l0 14.250002l-1.578125 0l-0.09375 -1.0781269q-1.03125 1.2656269 -2.859375 1.2656269q-1.75 0 -2.859375 -1.4218769q-1.09375 -1.4375 -1.09375 -3.734375l0 -0.140625zm1.71875 0.203125q0 1.703125 0.703125 2.671875q0.71875 0.96875 1.953125 0.96875q1.640625 0 2.390625 -1.46875l0 -4.609375q-0.78125 -1.421875 -2.375 -1.421875q-1.25 0 -1.96875 0.984375q-0.703125 0.96875 -0.703125 2.875zm15.427704 3.90625q-1.0 1.1875019 -2.9375 1.1875019q-1.609375 0 -2.453125 -0.921875q-0.84375 -0.9375019 -0.84375 -2.765627l0 -6.53125l1.71875 0l0 6.484375q0 2.28125 1.84375 2.28125q1.96875 0 2.625 -1.46875l0 -7.296875l1.71875 0l0 10.031252l-1.640625 0l-0.03125 -1.0000019zm5.9408875 1.0000019l-1.703125 0l0 -14.250002l1.703125 0l0 14.250002zm6.839905 0.1875q-2.046875 0 -3.328125 -1.3437519q-1.28125 -1.34375 -1.28125 -3.578125l0 -0.328125q0 -1.484375 0.5625 -2.65625q0.578125 -1.171875 1.59375 -1.828125q1.03125 -0.671875 2.234375 -0.671875q1.953125 0 3.03125 1.296875q1.09375 1.28125 1.09375 3.6875l0 0.703125l-6.796875 0q0.03125 1.484375 0.859375 2.40625q0.84375 0.90625 2.125 0.90625q0.90625 0 1.53125 -0.359375q0.640625 -0.375 1.109375 -0.984375l1.046875 0.8125q-1.265625 1.9375019 -3.78125 1.9375019zm-0.21875 -9.000002q-1.03125 0 -1.75 0.765625q-0.703125 0.75 -0.859375 2.109375l5.015625 0l0 -0.125q-0.0625 -1.3125 -0.703125 -2.03125q-0.625 -0.71875 -1.703125 -0.71875z" fill-rule="nonzero"></path><path fill="#3c78d8" d="m237.49606 86.74291l0 0c0 -3.6587753 2.9660187 -6.6248016 6.6248016 -6.6248016l231.75826 0c1.757019 0 3.4420776 0.6979675 4.6844482 1.940361c1.2424011 1.2423935 1.9403687 2.9274368 1.9403687 4.6844406l0 26.498428c0 3.6587753 -2.966034 6.6248016 -6.624817 6.6248016l-231.75826 0c-3.658783 0 -6.6248016 -2.9660263 -6.6248016 -6.6248016z" fill-rule="nonzero"></path><path fill="#ffffff" d="m344.22617 102.630875q-0.25 2.140625 -1.578125 3.3125q-1.328125 1.15625 -3.53125 1.15625q-2.40625 0 -3.84375 -1.71875q-1.4375 -1.71875 -1.4375 -4.59375l0 -1.296875q0 -1.890625 0.671875 -3.3125q0.671875 -1.421875 1.90625 -2.1875q1.234375 -0.765625 2.859375 -0.765625q2.140625 0 3.4375 1.203125q1.3125 1.1875 1.515625 3.3125l-1.78125 0q-0.234375 -1.609375 -1.015625 -2.328125q-0.765625 -0.734375 -2.15625 -0.734375q-1.71875 0 -2.6875 1.265625q-0.96875 1.265625 -0.96875 3.59375l0 1.3125q0 2.1875 0.921875 3.5q0.921875 1.296875 2.578125 1.296875q1.484375 0 2.265625 -0.671875q0.796875 -0.671875 1.0625 -2.34375l1.78125 0zm1.4867249 -0.828125q0 -1.484375 0.578125 -2.65625q0.578125 -1.171875 1.609375 -1.8125q1.046875 -0.640625 2.375 -0.640625q2.046875 0 3.3125 1.421875q1.265625 1.40625 1.265625 3.765625l0 0.125q0 1.46875 -0.5625 2.640625q-0.5625 1.15625 -1.609375 1.8125q-1.046875 0.640625 -2.390625 0.640625q-2.046875 0 -3.3125 -1.421875q-1.265625 -1.421875 -1.265625 -3.75l0 -0.125zm1.71875 0.203125q0 1.671875 0.78125 2.6875q0.78125 1.0 2.078125 1.0q1.296875 0 2.0625 -1.015625q0.78125 -1.03125 0.78125 -2.875q0 -1.65625 -0.78125 -2.671875q-0.78125 -1.03125 -2.078125 -1.03125q-1.28125 0 -2.0625 1.015625q-0.78125 1.0 -0.78125 2.890625zm10.999268 -5.125l0.0625 1.25q1.140625 -1.4375 3.0 -1.4375q3.1875 0 3.203125 3.578125l0 6.640625l-1.703125 0l0 -6.640625q-0.015625 -1.09375 -0.5 -1.609375q-0.484375 -0.515625 -1.515625 -0.515625q-0.84375 0 -1.46875 0.453125q-0.625 0.4375 -0.984375 1.15625l0 7.15625l-1.71875 0l0 -10.03125l1.625 0zm9.512482 10.03125l0 -8.71875l-1.578125 0l0 -1.3125l1.578125 0l0 -1.03125q0 -1.625 0.859375 -2.5q0.875 -0.875 2.453125 -0.875q0.59375 0 1.171875 0.15625l-0.09375 1.390625q-0.4375 -0.09375 -0.921875 -0.09375q-0.84375 0 -1.296875 0.5q-0.453125 0.484375 -0.453125 1.390625l0 1.0625l2.140625 0l0 1.3125l-2.140625 0l0 8.71875l-1.71875 0zm7.492462 0l-1.703125 0l0 -10.03125l1.703125 0l0 10.03125zm-1.84375 -12.703125q0 -0.421875 0.25 -0.703125q0.25 -0.28125 0.75 -0.28125q0.515625 0 0.765625 0.28125q0.265625 0.28125 0.265625 0.703125q0 0.421875 -0.265625 0.703125q-0.25 0.265625 -0.765625 0.265625q-0.5 0 -0.75 -0.265625q-0.25 -0.28125 -0.25 -0.703125zm4.1055603 7.59375q0 -2.34375 1.078125 -3.71875q1.09375 -1.390625 2.890625 -1.390625q1.828125 0 2.859375 1.296875l0.078125 -1.109375l1.578125 0l0 9.796875q0 1.9375 -1.15625 3.0625q-1.15625 1.125 -3.109375 1.125q-1.078125 0 -2.125 -0.46875q-1.03125 -0.453125 -1.578125 -1.265625l0.890625 -1.03125q1.09375 1.359375 2.6875 1.359375q1.265625 0 1.953125 -0.703125q0.703125 -0.703125 0.703125 -1.984375l0 -0.859375q-1.03125 1.1875 -2.8125 1.1875q-1.75 0 -2.84375 -1.421875q-1.09375 -1.421875 -1.09375 -3.875zm1.71875 0.203125q0 1.703125 0.703125 2.671875q0.703125 0.96875 1.953125 0.96875q1.625 0 2.375 -1.484375l0 -4.578125q-0.78125 -1.4375 -2.359375 -1.4375q-1.25 0 -1.96875 0.984375q-0.703125 0.96875 -0.703125 2.875z" fill-rule="nonzero"></path><path fill="#3c78d8" d="m237.49606 156.47258l0 0c0 -3.658783 2.9660187 -6.624817 6.6248016 -6.624817l231.75826 0c1.757019 0 3.4420776 0.6979675 4.6844482 1.9403687c1.2424011 1.2423859 1.9403687 2.9274292 1.9403687 4.6844482l0 26.498413c0 3.658783 -2.966034 6.6248016 -6.624817 6.6248016l-231.75826 0c-3.658783 0 -6.6248016 -2.9660187 -6.6248016 -6.6248016z" fill-rule="nonzero"></path><path fill="#ffffff" d="m337.511 171.17303l-3.171875 0l0 5.46875l-1.78125 0l0 -13.515625l4.46875 0q2.28125 0 3.5 1.046875q1.234375 1.03125 1.234375 3.03125q0 1.25 -0.6875 2.1875q-0.671875 0.9375 -1.890625 1.40625l3.171875 5.734375l0 0.109375l-1.90625 0l-2.9375 -5.46875zm-3.171875 -1.453125l2.75 0q1.3125 0 2.09375 -0.6875q0.796875 -0.6875 0.796875 -1.828125q0 -1.265625 -0.75 -1.921875q-0.75 -0.671875 -2.15625 -0.6875l-2.734375 0l0 5.125zm8.987091 1.8125q0 -1.484375 0.578125 -2.65625q0.578125 -1.171875 1.609375 -1.8125q1.046875 -0.640625 2.375 -0.640625q2.046875 0 3.3125 1.421875q1.265625 1.40625 1.265625 3.765625l0 0.125q0 1.46875 -0.5625 2.640625q-0.5625 1.15625 -1.609375 1.8125q-1.046875 0.640625 -2.390625 0.640625q-2.046875 0 -3.3125 -1.421875q-1.265625 -1.421875 -1.265625 -3.75l0 -0.125zm1.71875 0.203125q0 1.671875 0.78125 2.6875q0.78125 1.0 2.078125 1.0q1.296875 0 2.0625 -1.015625q0.78125 -1.03125 0.78125 -2.875q0 -1.65625 -0.78125 -2.671875q-0.78125 -1.03125 -2.078125 -1.03125q-1.28125 0 -2.0625 1.015625q-0.78125 1.0 -0.78125 2.890625zm15.577393 3.90625q-1.0 1.1875 -2.9375 1.1875q-1.609375 0 -2.453125 -0.921875q-0.84375 -0.9375 -0.84375 -2.765625l0 -6.53125l1.71875 0l0 6.484375q0 2.28125 1.84375 2.28125q1.96875 0 2.625 -1.46875l0 -7.296875l1.71875 0l0 10.03125l-1.640625 0l-0.03125 -1.0zm6.409607 -11.46875l0 2.4375l1.875 0l0 1.3125l-1.875 0l0 6.234375q0 0.59375 0.25 0.90625q0.25 0.296875 0.859375 0.296875q0.296875 0 0.8125 -0.109375l0 1.390625q-0.671875 0.1875 -1.3125 0.1875q-1.15625 0 -1.75 -0.6875q-0.578125 -0.703125 -0.578125 -1.984375l0 -6.234375l-1.828125 0l0 -1.3125l1.828125 0l0 -2.4375l1.71875 0zm7.938019 12.65625q-2.046875 0 -3.328125 -1.34375q-1.28125 -1.34375 -1.28125 -3.578125l0 -0.328125q0 -1.484375 0.5625 -2.65625q0.578125 -1.171875 1.59375 -1.828125q1.03125 -0.671875 2.234375 -0.671875q1.953125 0 3.03125 1.296875q1.09375 1.28125 1.09375 3.6875l0 0.703125l-6.796875 0q0.03125 1.484375 0.859375 2.40625q0.84375 0.90625 2.125 0.90625q0.90625 0 1.53125 -0.359375q0.640625 -0.375 1.109375 -0.984375l1.046875 0.8125q-1.265625 1.9375 -3.78125 1.9375zm-0.21875 -9.0q-1.03125 0 -1.75 0.765625q-0.703125 0.75 -0.859375 2.109375l5.015625 0l0 -0.125q-0.0625 -1.3125 -0.703125 -2.03125q-0.625 -0.71875 -1.703125 -0.71875zm11.774414 6.15625q0 -0.703125 -0.53125 -1.078125q-0.515625 -0.390625 -1.828125 -0.671875q-1.296875 -0.28125 -2.0625 -0.671875q-0.765625 -0.390625 -1.140625 -0.921875q-0.359375 -0.546875 -0.359375 -1.28125q0 -1.234375 1.046875 -2.078125q1.046875 -0.859375 2.671875 -0.859375q1.703125 0 2.765625 0.875q1.0625 0.875 1.0625 2.25l-1.71875 0q0 -0.703125 -0.609375 -1.203125q-0.59375 -0.515625 -1.5 -0.515625q-0.9375 0 -1.46875 0.40625q-0.53125 0.40625 -0.53125 1.0625q0 0.625 0.484375 0.9375q0.5 0.3125 1.78125 0.609375q1.296875 0.28125 2.09375 0.6875q0.796875 0.390625 1.171875 0.953125q0.390625 0.5625 0.390625 1.375q0 1.34375 -1.078125 2.15625q-1.078125 0.8125 -2.796875 0.8125q-1.203125 0 -2.125 -0.421875q-0.921875 -0.4375 -1.453125 -1.203125q-0.53125 -0.765625 -0.53125 -1.65625l1.71875 0q0.046875 0.859375 0.6875 1.375q0.65625 0.5 1.703125 0.5q0.984375 0 1.5625 -0.390625q0.59375 -0.390625 0.59375 -1.046875z" fill-rule="nonzero"></path><path fill="#3c78d8" d="m9.682415 253.19173l0 0c0 -3.6587677 2.9660254 -6.6248016 6.6248035 -6.6248016l231.75827 0c1.7570038 0 3.442047 0.6979675 4.684433 1.9403687c1.2424011 1.2423859 1.9403687 2.9274292 1.9403687 4.684433l0 26.498428c0 3.658783 -2.966034 6.624817 -6.6248016 6.624817l-231.75827 0c-3.6587782 0 -6.6248035 -2.966034 -6.6248035 -6.624817z" fill-rule="nonzero"></path><path fill="#ffffff" d="m118.08302 271.00156l3.859375 -11.15625l1.9375 0l-5.0 13.515625l-1.578125 0l-5.0 -13.515625l1.9375 0l3.84375 11.15625zm8.97905 2.359375l-1.703125 0l0 -10.03125l1.703125 0l0 10.03125zm-1.84375 -12.703125q0 -0.421875 0.25 -0.703125q0.25 -0.28125 0.75 -0.28125q0.515625 0 0.765625 0.28125q0.265625 0.28125 0.265625 0.703125q0 0.421875 -0.265625 0.703125q-0.25 0.265625 -0.765625 0.265625q-0.5 0 -0.75 -0.265625q-0.25 -0.28125 -0.25 -0.703125zm8.68367 12.890625q-2.046875 0 -3.328125 -1.34375q-1.28125 -1.34375 -1.28125 -3.578125l0 -0.328125q0 -1.484375 0.5625 -2.65625q0.578125 -1.171875 1.59375 -1.828125q1.03125 -0.671875 2.234375 -0.671875q1.953125 0 3.03125 1.296875q1.09375 1.28125 1.09375 3.6875l0 0.703125l-6.796875 0q0.03125 1.484375 0.859375 2.40625q0.84375 0.90625 2.125 0.90625q0.90625 0 1.53125 -0.359375q0.640625 -0.375 1.109375 -0.984375l1.046875 0.8125q-1.265625 1.9375 -3.78125 1.9375zm-0.21875 -9.0q-1.03125 0 -1.75 0.765625q-0.703125 0.75 -0.859375 2.109375l5.015625 0l0 -0.125q-0.0625 -1.3125 -0.703125 -2.03125q-0.625 -0.71875 -1.703125 -0.71875zm14.821304 6.453125l1.921875 -7.671875l1.71875 0l-2.921875 10.03125l-1.390625 0l-2.4375 -7.609375l-2.375 7.609375l-1.390625 0l-2.90625 -10.03125l1.703125 0l1.96875 7.5l2.34375 -7.5l1.375 0l2.390625 7.671875z" fill-rule="nonzero"></path><path fill="#3c78d8" d="m465.30972 253.19173l0 0c0 -3.6587677 2.9660034 -6.6248016 6.6247864 -6.6248016l231.7583 0c1.756958 0 3.4420166 0.6979675 4.684387 1.9403687c1.2424316 1.2423859 1.9403687 2.9274292 1.9403687 4.684433l0 26.498428c0 3.658783 -2.9660034 6.624817 -6.624756 6.624817l-231.7583 0c-3.658783 0 -6.6247864 -2.966034 -6.6247864 -6.624817z" fill-rule="nonzero"></path><path fill="#ffffff" d="m558.6261 269.07968q-0.25 2.140625 -1.578125 3.3125q-1.328125 1.15625 -3.53125 1.15625q-2.40625 0 -3.84375 -1.71875q-1.4375 -1.71875 -1.4375 -4.59375l0 -1.296875q0 -1.890625 0.671875 -3.3125q0.671875 -1.421875 1.90625 -2.1875q1.234375 -0.765625 2.859375 -0.765625q2.140625 0 3.4375 1.203125q1.3125 1.1875 1.515625 3.3125l-1.78125 0q-0.234375 -1.609375 -1.015625 -2.328125q-0.765625 -0.734375 -2.15625 -0.734375q-1.71875 0 -2.6875 1.265625q-0.96875 1.265625 -0.96875 3.59375l0 1.3125q0 2.1875 0.921875 3.5q0.921875 1.296875 2.578125 1.296875q1.484375 0 2.265625 -0.671875q0.796875 -0.671875 1.0625 -2.34375l1.78125 0zm1.4866943 -0.828125q0 -1.484375 0.578125 -2.65625q0.578125 -1.171875 1.609375 -1.8125q1.046875 -0.640625 2.375 -0.640625q2.046875 0 3.3125 1.421875q1.265625 1.40625 1.265625 3.765625l0 0.125q0 1.46875 -0.5625 2.640625q-0.5625 1.15625 -1.609375 1.8125q-1.046875 0.640625 -2.390625 0.640625q-2.046875 0 -3.3125 -1.421875q-1.265625 -1.421875 -1.265625 -3.75l0 -0.125zm1.71875 0.203125q0 1.671875 0.78125 2.6875q0.78125 1.0 2.078125 1.0q1.296875 0 2.0625 -1.015625q0.78125 -1.03125 0.78125 -2.875q0 -1.65625 -0.78125 -2.671875q-0.78125 -1.03125 -2.078125 -1.03125q-1.28125 0 -2.0625 1.015625q-0.78125 1.0 -0.78125 2.890625zm10.999268 -5.125l0.0625 1.25q1.140625 -1.4375 3.0 -1.4375q3.1875 0 3.203125 3.578125l0 6.640625l-1.703125 0l0 -6.640625q-0.015625 -1.09375 -0.5 -1.609375q-0.484375 -0.515625 -1.515625 -0.515625q-0.84375 0 -1.46875 0.453125q-0.625 0.4375 -0.984375 1.15625l0 7.15625l-1.71875 0l0 -10.03125l1.625 0zm10.996826 -2.4375l0 2.4375l1.875 0l0 1.3125l-1.875 0l0 6.234375q0 0.59375 0.25 0.90625q0.25 0.296875 0.859375 0.296875q0.296875 0 0.8125 -0.109375l0 1.390625q-0.671875 0.1875 -1.3125 0.1875q-1.15625 0 -1.75 -0.6875q-0.578125 -0.703125 -0.578125 -1.984375l0 -6.234375l-1.828125 0l0 -1.3125l1.828125 0l0 -2.4375l1.71875 0zm8.625549 3.96875q-0.390625 -0.0625 -0.84375 -0.0625q-1.6875 0 -2.296875 1.4375l0 7.125l-1.71875 0l0 -10.03125l1.671875 0l0.03125 1.15625q0.84375 -1.34375 2.390625 -1.34375q0.5 0 0.765625 0.125l0 1.59375zm1.0003662 3.390625q0 -1.484375 0.578125 -2.65625q0.578125 -1.171875 1.609375 -1.8125q1.046875 -0.640625 2.375 -0.640625q2.046875 0 3.3125 1.421875q1.265625 1.40625 1.265625 3.765625l0 0.125q0 1.46875 -0.5625 2.640625q-0.5625 1.15625 -1.609375 1.8125q-1.046875 0.640625 -2.390625 0.640625q-2.046875 0 -3.3125 -1.421875q-1.265625 -1.421875 -1.265625 -3.75l0 -0.125zm1.71875 0.203125q0 1.671875 0.78125 2.6875q0.78125 1.0 2.078125 1.0q1.296875 0 2.0625 -1.015625q0.78125 -1.03125 0.78125 -2.875q0 -1.65625 -0.78125 -2.671875q-0.78125 -1.03125 -2.078125 -1.03125q-1.28125 0 -2.0625 1.015625q-0.78125 1.0 -0.78125 2.890625zm11.233643 4.90625l-1.703125 0l0 -14.25l1.703125 0l0 14.25zm4.527405 0l-1.703125 0l0 -14.25l1.703125 0l0 14.25zm6.839905 0.1875q-2.046875 0 -3.328125 -1.34375q-1.28125 -1.34375 -1.28125 -3.578125l0 -0.328125q0 -1.484375 0.5625 -2.65625q0.578125 -1.171875 1.59375 -1.828125q1.03125 -0.671875 2.234375 -0.671875q1.953125 0 3.03125 1.296875q1.09375 1.28125 1.09375 3.6875l0 0.703125l-6.796875 0q0.03125 1.484375 0.859375 2.40625q0.84375 0.90625 2.125 0.90625q0.90625 0 1.53125 -0.359375q0.640625 -0.375 1.109375 -0.984375l1.046875 0.8125q-1.265625 1.9375 -3.78125 1.9375zm-0.21875 -9.0q-1.03125 0 -1.75 0.765625q-0.703125 0.75 -0.859375 2.109375l5.015625 0l0 -0.125q-0.0625 -1.3125 -0.703125 -2.03125q-0.625 -0.71875 -1.703125 -0.71875zm10.7901 0.3125q-0.390625 -0.0625 -0.84375 -0.0625q-1.6875 0 -2.296875 1.4375l0 7.125l-1.71875 0l0 -10.03125l1.671875 0l0.03125 1.15625q0.84375 -1.34375 2.390625 -1.34375q0.5 0 0.765625 0.125l0 1.59375z" fill-rule="nonzero"></path><path fill="#3c78d8" d="m9.682415 340.3571l0 0c0 -3.658783 2.9660254 -6.624817 6.6248035 -6.624817l231.75827 0c1.7570038 0 3.442047 0.6979675 4.684433 1.9403687c1.2424011 1.2424011 1.9403687 2.9274292 1.9403687 4.6844482l0 26.498413c0 3.658783 -2.966034 6.624817 -6.6248016 6.624817l-231.75827 0c-3.6587782 0 -6.6248035 -2.966034 -6.6248035 -6.624817z" fill-rule="nonzero"></path><path fill="#ffffff" d="m92.80622 360.5263l0 -13.515625l3.8125 0q1.765625 0 3.125 0.78125q1.359375 0.78125 2.09375 2.21875q0.734375 1.4375 0.75 3.3125l0 0.859375q0 1.90625 -0.75 3.34375q-0.734375 1.4375 -2.109375 2.21875q-1.359375 0.765625 -3.171875 0.78125l-3.75 0zm1.78125 -12.046875l0 10.59375l1.875 0q2.0625 0 3.203125 -1.28125q1.15625 -1.28125 1.15625 -3.65625l0 -0.78125q0 -2.296875 -1.09375 -3.578125q-1.078125 -1.28125 -3.0625 -1.296875l-2.078125 0zm12.046555 12.046875l-1.703125 0l0 -10.03125l1.703125 0l0 10.03125zm-1.84375 -12.703125q0 -0.421875 0.25 -0.703125q0.25 -0.28125 0.75 -0.28125q0.515625 0 0.765625 0.28125q0.265625 0.28125 0.265625 0.703125q0 0.421875 -0.265625 0.703125q-0.25 0.265625 -0.765625 0.265625q-0.5 0 -0.75 -0.265625q-0.25 -0.28125 -0.25 -0.703125zm9.37117 4.203125q-0.390625 -0.0625 -0.84375 -0.0625q-1.6875 0 -2.296875 1.4375l0 7.125l-1.71875 0l0 -10.03125l1.671875 0l0.03125 1.15625q0.84375 -1.34375 2.390625 -1.34375q0.5 0 0.765625 0.125l0 1.59375zm5.6253815 8.6875q-2.046875 0 -3.328125 -1.34375q-1.28125 -1.34375 -1.28125 -3.578125l0 -0.328125q0 -1.484375 0.5625 -2.65625q0.578125 -1.171875 1.59375 -1.828125q1.03125 -0.671875 2.234375 -0.671875q1.953125 0 3.03125 1.296875q1.09375 1.28125 1.09375 3.6875l0 0.703125l-6.796875 0q0.03125 1.484375 0.859375 2.40625q0.84375 0.90625 2.125 0.90625q0.90625 0 1.53125 -0.359375q0.640625 -0.375 1.109375 -0.984375l1.046875 0.8125q-1.265625 1.9375 -3.78125 1.9375zm-0.21875 -9.0q-1.03125 0 -1.75 0.765625q-0.703125 0.75 -0.859375 2.109375l5.015625 0l0 -0.125q-0.0625 -1.3125 -0.703125 -2.03125q-0.625 -0.71875 -1.703125 -0.71875zm9.961922 7.59375q0.921875 0 1.59375 -0.546875q0.6875 -0.5625 0.765625 -1.390625l1.625 0q-0.046875 0.859375 -0.59375 1.640625q-0.546875 0.765625 -1.46875 1.234375q-0.90625 0.46875 -1.921875 0.46875q-2.0468674 0 -3.2656174 -1.359375q-1.203125 -1.375 -1.203125 -3.75l0 -0.296875q0 -1.46875 0.53125 -2.609375q0.546875 -1.140625 1.546875 -1.765625q0.9999924 -0.625 2.3749924 -0.625q1.6875 0 2.796875 1.015625q1.125 1.0 1.203125 2.609375l-1.625 0q-0.078125 -0.96875 -0.734375 -1.59375q-0.65625 -0.625 -1.640625 -0.625q-1.296875 0 -2.0312424 0.9375q-0.71875 0.9375 -0.71875 2.71875l0 0.328125q0 1.734375 0.71875 2.671875q0.7187424 0.9375 2.0468674 0.9375zm8.062256 -11.25l0 2.4375l1.875 0l0 1.3125l-1.875 0l0 6.234375q0 0.59375 0.25 0.90625q0.25 0.296875 0.859375 0.296875q0.296875 0 0.8125 -0.109375l0 1.390625q-0.671875 0.1875 -1.3125 0.1875q-1.15625 0 -1.75 -0.6875q-0.578125 -0.703125 -0.578125 -1.984375l0 -6.234375l-1.828125 0l0 -1.3125l1.828125 0l0 -2.4375l1.71875 0zm5.6255035 12.46875l-1.703125 0l0 -10.03125l1.703125 0l0 10.03125zm-1.84375 -12.703125q0 -0.421875 0.25 -0.703125q0.25 -0.28125 0.75 -0.28125q0.515625 0 0.765625 0.28125q0.265625 0.28125 0.265625 0.703125q0 0.421875 -0.265625 0.703125q-0.25 0.265625 -0.765625 0.265625q-0.5 0 -0.75 -0.265625q-0.25 -0.28125 -0.25 -0.703125zm7.8243103 10.375l2.484375 -7.703125l1.75 0l-3.59375 10.03125l-1.3125 0l-3.625 -10.03125l1.75 0l2.546875 7.703125zm9.895996 2.515625q-2.046875 0 -3.328125 -1.34375q-1.28125 -1.34375 -1.28125 -3.578125l0 -0.328125q0 -1.484375 0.5625 -2.65625q0.578125 -1.171875 1.59375 -1.828125q1.03125 -0.671875 2.234375 -0.671875q1.953125 0 3.03125 1.296875q1.09375 1.28125 1.09375 3.6875l0 0.703125l-6.796875 0q0.03125 1.484375 0.859375 2.40625q0.84375 0.90625 2.125 0.90625q0.90625 0 1.53125 -0.359375q0.640625 -0.375 1.109375 -0.984375l1.046875 0.8125q-1.265625 1.9375 -3.78125 1.9375zm-0.21875 -9.0q-1.03125 0 -1.75 0.765625q-0.703125 0.75 -0.859375 2.109375l5.015625 0l0 -0.125q-0.0625 -1.3125 -0.703125 -2.03125q-0.625 -0.71875 -1.703125 -0.71875zm11.774414 6.15625q0 -0.703125 -0.53125 -1.078125q-0.515625 -0.390625 -1.828125 -0.671875q-1.296875 -0.28125 -2.0625 -0.671875q-0.765625 -0.390625 -1.140625 -0.921875q-0.359375 -0.546875 -0.359375 -1.28125q0 -1.234375 1.046875 -2.078125q1.046875 -0.859375 2.671875 -0.859375q1.703125 0 2.765625 0.875q1.0625 0.875 1.0625 2.25l-1.71875 0q0 -0.703125 -0.609375 -1.203125q-0.59375 -0.515625 -1.5 -0.515625q-0.9375 0 -1.46875 0.40625q-0.53125 0.40625 -0.53125 1.0625q0 0.625 0.484375 0.9375q0.5 0.3125 1.78125 0.609375q1.296875 0.28125 2.09375 0.6875q0.796875 0.390625 1.171875 0.953125q0.390625 0.5625 0.390625 1.375q0 1.34375 -1.078125 2.15625q-1.078125 0.8125 -2.796875 0.8125q-1.203125 0 -2.125 -0.421875q-0.921875 -0.4375 -1.453125 -1.203125q-0.53125 -0.765625 -0.53125 -1.65625l1.71875 0q0.046875 0.859375 0.6875 1.375q0.65625 0.5 1.703125 0.5q0.984375 0 1.5625 -0.390625q0.59375 -0.390625 0.59375 -1.046875z" fill-rule="nonzero"></path><path fill="#3c78d8" d="m465.30972 340.3571l0 0c0 -3.658783 2.9660034 -6.624817 6.6247864 -6.624817l231.7583 0c1.756958 0 3.4420166 0.6979675 4.684387 1.9403687c1.2424316 1.2424011 1.9403687 2.9274292 1.9403687 4.6844482l0 26.498413c0 3.658783 -2.9660034 6.624817 -6.624756 6.624817l-231.7583 0c-3.658783 0 -6.6247864 -2.966034 -6.6247864 -6.624817z" fill-rule="nonzero"></path><path fill="#ffffff" d="m512.86584 355.24506l0 5.28125l-1.7812805 0l0 -13.515625l4.9844055 0q2.21875 0 3.46875 1.140625q1.265625 1.125 1.265625 3.0q0 1.96875 -1.234375 3.03125q-1.21875 1.0625 -3.515625 1.0625l-3.1875 0zm0 -1.46875l3.203125 0q1.4375 0 2.1875 -0.671875q0.765625 -0.671875 0.765625 -1.9375q0 -1.203125 -0.765625 -1.921875q-0.75 -0.734375 -2.078125 -0.765625l-3.3125 0l0 5.296875zm14.58197 -1.75q-0.390625 -0.0625 -0.84375 -0.0625q-1.6875 0 -2.296875 1.4375l0 7.125l-1.71875 0l0 -10.03125l1.671875 0l0.03125 1.15625q0.84375 -1.34375 2.390625 -1.34375q0.5 0 0.765625 0.125l0 1.59375zm1.0003662 3.390625q0 -1.484375 0.578125 -2.65625q0.578125 -1.171875 1.609375 -1.8125q1.046875 -0.640625 2.375 -0.640625q2.046875 0 3.3125 1.421875q1.265625 1.40625 1.265625 3.765625l0 0.125q0 1.46875 -0.5625 2.640625q-0.5625 1.15625 -1.609375 1.8125q-1.046875 0.640625 -2.390625 0.640625q-2.046875 0 -3.3125 -1.421875q-1.265625 -1.421875 -1.265625 -3.75l0 -0.125zm1.71875 0.203125q0 1.671875 0.78125 2.6875q0.78125 1.0 2.078125 1.0q1.296875 0 2.0625 -1.015625q0.78125 -1.03125 0.78125 -2.875q0 -1.65625 -0.78125 -2.671875q-0.78125 -1.03125 -2.078125 -1.03125q-1.28125 0 -2.0625 1.015625q-0.78125 1.0 -0.78125 2.890625zm12.686768 2.578125l2.484375 -7.703125l1.75 0l-3.59375 10.03125l-1.3125 0l-3.625 -10.03125l1.75 0l2.546875 7.703125zm7.583496 2.328125l-1.703125 0l0 -10.03125l1.703125 0l0 10.03125zm-1.84375 -12.703125q0 -0.421875 0.25 -0.703125q0.25 -0.28125 0.75 -0.28125q0.515625 0 0.765625 0.28125q0.265625 0.28125 0.265625 0.703125q0 0.421875 -0.265625 0.703125q-0.25 0.265625 -0.765625 0.265625q-0.5 0 -0.75 -0.265625q-0.25 -0.28125 -0.25 -0.703125zm4.089905 7.59375q0 -2.296875 1.09375 -3.703125q1.109375 -1.40625 2.875 -1.40625q1.765625 0 2.796875 1.203125l0 -5.234375l1.71875 0l0 14.25l-1.578125 0l-0.09375 -1.078125q-1.03125 1.265625 -2.859375 1.265625q-1.75 0 -2.859375 -1.421875q-1.09375 -1.4375 -1.09375 -3.734375l0 -0.140625zm1.71875 0.203125q0 1.703125 0.703125 2.671875q0.71875 0.96875 1.953125 0.96875q1.640625 0 2.390625 -1.46875l0 -4.609375q-0.78125 -1.421875 -2.375 -1.421875q-1.25 0 -1.96875 0.984375q-0.703125 0.96875 -0.703125 2.875zm13.396484 5.09375q-2.046875 0 -3.328125 -1.34375q-1.28125 -1.34375 -1.28125 -3.578125l0 -0.328125q0 -1.484375 0.5625 -2.65625q0.578125 -1.171875 1.59375 -1.828125q1.03125 -0.671875 2.234375 -0.671875q1.953125 0 3.03125 1.296875q1.09375 1.28125 1.09375 3.6875l0 0.703125l-6.796875 0q0.03125 1.484375 0.859375 2.40625q0.84375 0.90625 2.125 0.90625q0.90625 0 1.53125 -0.359375q0.640625 -0.375 1.109375 -0.984375l1.046875 0.8125q-1.265625 1.9375 -3.78125 1.9375zm-0.21875 -9.0q-1.03125 0 -1.75 0.765625q-0.703125 0.75 -0.859375 2.109375l5.015625 0l0 -0.125q-0.0625 -1.3125 -0.703125 -2.03125q-0.625 -0.71875 -1.703125 -0.71875zm10.790039 0.3125q-0.390625 -0.0625 -0.84375 -0.0625q-1.6875 0 -2.296875 1.4375l0 7.125l-1.71875 0l0 -10.03125l1.671875 0l0.03125 1.15625q0.84375 -1.34375 2.390625 -1.34375q0.5 0 0.765625 0.125l0 1.59375zm6.0095215 3.015625q0 -2.09375 0.5625 -4.015625q0.5625 -1.9375 1.671875 -3.515625q1.109375 -1.578125 2.3125 -2.234375l0.34375 1.140625q-1.34375 1.03125 -2.21875 3.171875q-0.859375 2.140625 -0.953125 4.78125l0 0.78125q0 3.578125 1.3125 6.21875q0.78125 1.578125 1.859375 2.46875l-0.34375 1.046875q-1.234375 -0.6875 -2.359375 -2.296875q-2.1875 -3.15625 -2.1875 -7.546875zm10.689148 -0.53125q-2.296875 -0.671875 -3.34375 -1.625q-1.03125 -0.953125 -1.03125 -2.375q0 -1.59375 1.265625 -2.625q1.28125 -1.046875 3.328125 -1.046875q1.390625 0 2.46875 0.53125q1.09375 0.53125 1.6875 1.484375q0.609375 0.953125 0.609375 2.0625l-1.796875 0q0 -1.21875 -0.78125 -1.921875q-0.765625 -0.703125 -2.1875 -0.703125q-1.328125 0 -2.0625 0.59375q-0.734375 0.578125 -0.734375 1.609375q0 0.8125 0.703125 1.390625q0.703125 0.5625 2.375 1.046875q1.6875 0.46875 2.640625 1.046875q0.953125 0.5625 1.40625 1.328125q0.46875 0.75 0.46875 1.78125q0 1.640625 -1.28125 2.640625q-1.28125 0.984375 -3.421875 0.984375q-1.390625 0 -2.609375 -0.53125q-1.203125 -0.53125 -1.859375 -1.453125q-0.640625 -0.9375 -0.640625 -2.125l1.78125 0q0 1.234375 0.90625 1.953125q0.90625 0.703125 2.421875 0.703125q1.40625 0 2.15625 -0.578125q0.75 -0.578125 0.75 -1.5625q0 -1.0 -0.703125 -1.546875q-0.6875 -0.546875 -2.515625 -1.0625zm10.989929 6.203125q-2.046875 0 -3.328125 -1.34375q-1.28125 -1.34375 -1.28125 -3.578125l0 -0.328125q0 -1.484375 0.5625 -2.65625q0.578125 -1.171875 1.59375 -1.828125q1.03125 -0.671875 2.234375 -0.671875q1.953125 0 3.03125 1.296875q1.09375 1.28125 1.09375 3.6875l0 0.703125l-6.796875 0q0.03125 1.484375 0.859375 2.40625q0.84375 0.90625 2.125 0.90625q0.90625 0 1.53125 -0.359375q0.640625 -0.375 1.109375 -0.984375l1.046875 0.8125q-1.265625 1.9375 -3.78125 1.9375zm-0.21875 -9.0q-1.03125 0 -1.75 0.765625q-0.703125 0.75 -0.859375 2.109375l5.015625 0l0 -0.125q-0.0625 -1.3125 -0.703125 -2.03125q-0.625 -0.71875 -1.703125 -0.71875zm10.790039 0.3125q-0.390625 -0.0625 -0.84375 -0.0625q-1.6875 0 -2.296875 1.4375l0 7.125l-1.71875 0l0 -10.03125l1.671875 0l0.03125 1.15625q0.84375 -1.34375 2.390625 -1.34375q0.5 0 0.765625 0.125l0 1.59375zm4.765991 6.171875l2.484375 -7.703125l1.75 0l-3.59375 10.03125l-1.3125 0l-3.625 -10.03125l1.75 0l2.546875 7.703125zm7.583496 2.328125l-1.703125 0l0 -10.03125l1.703125 0l0 10.03125zm-1.84375 -12.703125q0 -0.421875 0.25 -0.703125q0.25 -0.28125 0.75 -0.28125q0.515625 0 0.765625 0.28125q0.265625 0.28125 0.265625 0.703125q0 0.421875 -0.265625 0.703125q-0.25 0.265625 -0.765625 0.265625q-0.5 0 -0.75 -0.265625q-0.25 -0.28125 -0.25 -0.703125zm8.543091 11.484375q0.921875 0 1.59375 -0.546875q0.6875 -0.5625 0.765625 -1.390625l1.625 0q-0.046875 0.859375 -0.59375 1.640625q-0.546875 0.765625 -1.46875 1.234375q-0.90625 0.46875 -1.921875 0.46875q-2.046875 0 -3.265625 -1.359375q-1.203125 -1.375 -1.203125 -3.75l0 -0.296875q0 -1.46875 0.53125 -2.609375q0.546875 -1.140625 1.546875 -1.765625q1.0 -0.625 2.375 -0.625q1.6875 0 2.796875 1.015625q1.125 1.0 1.203125 2.609375l-1.625 0q-0.078125 -0.96875 -0.734375 -1.59375q-0.65625 -0.625 -1.640625 -0.625q-1.296875 0 -2.03125 0.9375q-0.71875 0.9375 -0.71875 2.71875l0 0.328125q0 1.734375 0.71875 2.671875q0.71875 0.9375 2.046875 0.9375zm9.906006 1.40625q-2.046875 0 -3.328125 -1.34375q-1.28125 -1.34375 -1.28125 -3.578125l0 -0.328125q0 -1.484375 0.5625 -2.65625q0.578125 -1.171875 1.59375 -1.828125q1.03125 -0.671875 2.234375 -0.671875q1.953125 0 3.03125 1.296875q1.09375 1.28125 1.09375 3.6875l0 0.703125l-6.796875 0q0.03125 1.484375 0.859375 2.40625q0.84375 0.90625 2.125 0.90625q0.90625 0 1.53125 -0.359375q0.640625 -0.375 1.109375 -0.984375l1.046875 0.8125q-1.265625 1.9375 -3.78125 1.9375zm-0.21875 -9.0q-1.03125 0 -1.75 0.765625q-0.703125 0.75 -0.859375 2.109375l5.015625 0l0 -0.125q-0.0625 -1.3125 -0.703125 -2.03125q-0.625 -0.71875 -1.703125 -0.71875zm11.774414 6.15625q0 -0.703125 -0.53125 -1.078125q-0.515625 -0.390625 -1.828125 -0.671875q-1.296875 -0.28125 -2.0625 -0.671875q-0.765625 -0.390625 -1.140625 -0.921875q-0.359375 -0.546875 -0.359375 -1.28125q0 -1.234375 1.046875 -2.078125q1.046875 -0.859375 2.671875 -0.859375q1.703125 0 2.765625 0.875q1.0625 0.875 1.0625 2.25l-1.71875 0q0 -0.703125 -0.609375 -1.203125q-0.59375 -0.515625 -1.5 -0.515625q-0.9375 0 -1.46875 0.40625q-0.53125 0.40625 -0.53125 1.0625q0 0.625 0.484375 0.9375q0.5 0.3125 1.78125 0.609375q1.296875 0.28125 2.09375 0.6875q0.796875 0.390625 1.171875 0.953125q0.390625 0.5625 0.390625 1.375q0 1.34375 -1.078125 2.15625q-1.078125 0.8125 -2.796875 0.8125q-1.203125 0 -2.125 -0.421875q-0.921875 -0.4375 -1.453125 -1.203125q-0.53125 -0.765625 -0.53125 -1.65625l1.71875 0q0.046875 0.859375 0.6875 1.375q0.65625 0.5 1.703125 0.5q0.984375 0 1.5625 -0.390625q0.59375 -0.390625 0.59375 -1.046875zm7.744629 -2.734375q0 2.0625 -0.546875 3.96875q-0.546875 1.890625 -1.671875 3.5q-1.109375 1.609375 -2.328125 2.28125l-0.359375 -1.046875q1.421875 -1.09375 2.28125 -3.390625q0.875 -2.3125 0.890625 -5.125l0 -0.296875q0 -1.953125 -0.40625 -3.625q-0.40625 -1.671875 -1.140625 -3.0q-0.71875 -1.328125 -1.625 -2.0625l0.359375 -1.0625q1.21875 0.6875 2.328125 2.28125q1.109375 1.578125 1.65625 3.484375q0.5625 1.90625 0.5625 4.09375z" fill-rule="nonzero"></path><path fill="#3c78d8" d="m302.15747 253.19173l0 0c0 -3.6587677 2.966034 -6.6248016 6.624817 -6.6248016l102.435425 0c1.757019 0 3.442047 0.6979675 4.6844482 1.9403687c1.2424011 1.2423859 1.9403687 2.9274292 1.9403687 4.684433l0 26.498428c0 3.658783 -2.966034 6.624817 -6.624817 6.624817l-102.435425 0l0 0c-3.658783 0 -6.624817 -2.966034 -6.624817 -6.624817z" fill-rule="nonzero"></path><path fill="#ffffff" d="m337.51178 269.87656q0 -0.84375 -0.59375 -1.421875q-0.59375 -0.59375 -2.015625 -1.0625q-1.984375 -0.609375 -2.890625 -1.578125q-0.890625 -0.96875 -0.890625 -2.46875q0 -1.515625 0.875 -2.484375q0.890625 -0.984375 2.4375 -1.171875l0 -2.03125l1.390625 0l0 2.046875q1.546875 0.21875 2.40625 1.3125q0.875 1.09375 0.875 2.984375l-1.703125 0q0 -1.296875 -0.625 -2.0625q-0.609375 -0.78125 -1.671875 -0.78125q-1.109375 0 -1.703125 0.578125q-0.578125 0.5625 -0.578125 1.59375q0 0.9375 0.609375 1.5q0.625 0.5625 2.03125 1.03125q1.421875 0.453125 2.21875 1.0q0.796875 0.546875 1.171875 1.28125q0.375 0.734375 0.375 1.71875q0 1.5625 -0.9375 2.53125q-0.9375 0.953125 -2.640625 1.125l0 1.78125l-1.375 0l0 -1.78125q-1.71875 -0.15625 -2.703125 -1.21875q-0.984375 -1.078125 -0.984375 -2.921875l1.71875 0q0 1.296875 0.671875 2.0q0.6875 0.6875 1.921875 0.6875q1.21875 0 1.90625 -0.578125q0.703125 -0.59375 0.703125 -1.609375zm9.679047 0.828125q0 -0.703125 -0.53125 -1.078125q-0.515625 -0.390625 -1.828125 -0.671875q-1.296875 -0.28125 -2.0625 -0.671875q-0.765625 -0.390625 -1.140625 -0.921875q-0.359375 -0.546875 -0.359375 -1.28125q0 -1.234375 1.046875 -2.078125q1.046875 -0.859375 2.671875 -0.859375q1.703125 0 2.765625 0.875q1.0625 0.875 1.0625 2.25l-1.71875 0q0 -0.703125 -0.609375 -1.203125q-0.59375 -0.515625 -1.5 -0.515625q-0.9375 0 -1.46875 0.40625q-0.53125 0.40625 -0.53125 1.0625q0 0.625 0.484375 0.9375q0.5 0.3125 1.78125 0.609375q1.296875 0.28125 2.09375 0.6875q0.796875 0.390625 1.171875 0.953125q0.390625 0.5625 0.390625 1.375q0 1.34375 -1.078125 2.15625q-1.078125 0.8125 -2.796875 0.8125q-1.203125 0 -2.125 -0.421875q-0.921875 -0.4375 -1.453125 -1.203125q-0.53125 -0.765625 -0.53125 -1.65625l1.71875 0q0.046875 0.859375 0.6875 1.375q0.65625 0.5 1.703125 0.5q0.984375 0 1.5625 -0.390625q0.59375 -0.390625 0.59375 -1.046875zm7.807129 1.4375q0.921875 0 1.59375 -0.546875q0.6875 -0.5625 0.765625 -1.390625l1.625 0q-0.046875 0.859375 -0.59375 1.640625q-0.546875 0.765625 -1.46875 1.234375q-0.90625 0.46875 -1.921875 0.46875q-2.046875 0 -3.265625 -1.359375q-1.203125 -1.375 -1.203125 -3.75l0 -0.296875q0 -1.46875 0.53125 -2.609375q0.546875 -1.140625 1.546875 -1.765625q1.0 -0.625 2.375 -0.625q1.6875 0 2.796875 1.015625q1.125 1.0 1.203125 2.609375l-1.625 0q-0.078125 -0.96875 -0.734375 -1.59375q-0.65625 -0.625 -1.640625 -0.625q-1.296875 0 -2.03125 0.9375q-0.71875 0.9375 -0.71875 2.71875l0 0.328125q0 1.734375 0.71875 2.671875q0.71875 0.9375 2.046875 0.9375zm5.281006 -3.890625q0 -1.484375 0.578125 -2.65625q0.578125 -1.171875 1.609375 -1.8125q1.046875 -0.640625 2.375 -0.640625q2.046875 0 3.3125 1.421875q1.265625 1.40625 1.265625 3.765625l0 0.125q0 1.46875 -0.5625 2.640625q-0.5625 1.15625 -1.609375 1.8125q-1.046875 0.640625 -2.390625 0.640625q-2.046875 0 -3.3125 -1.421875q-1.265625 -1.421875 -1.265625 -3.75l0 -0.125zm1.71875 0.203125q0 1.671875 0.78125 2.6875q0.78125 1.0 2.078125 1.0q1.296875 0 2.0625 -1.015625q0.78125 -1.03125 0.78125 -2.875q0 -1.65625 -0.78125 -2.671875q-0.78125 -1.03125 -2.078125 -1.03125q-1.28125 0 -2.0625 1.015625q-0.78125 1.0 -0.78125 2.890625zm17.858643 0q0 2.296875 -1.046875 3.703125q-1.046875 1.390625 -2.84375 1.390625q-1.828125 0 -2.875 -1.15625l0 4.828125l-1.71875 0l0 -13.890625l1.5625 0l0.09375 1.109375q1.046875 -1.296875 2.90625 -1.296875q1.8125 0 2.859375 1.359375q1.0625 1.359375 1.0625 3.796875l0 0.15625zm-1.71875 -0.203125q0 -1.6875 -0.734375 -2.671875q-0.71875 -0.984375 -1.96875 -0.984375q-1.5625 0 -2.34375 1.375l0 4.796875q0.765625 1.375 2.359375 1.375q1.234375 0 1.953125 -0.96875q0.734375 -0.984375 0.734375 -2.921875zm7.873047 5.296875q-2.046875 0 -3.328125 -1.34375q-1.28125 -1.34375 -1.28125 -3.578125l0 -0.328125q0 -1.484375 0.5625 -2.65625q0.578125 -1.171875 1.59375 -1.828125q1.03125 -0.671875 2.234375 -0.671875q1.953125 0 3.03125 1.296875q1.09375 1.28125 1.09375 3.6875l0 0.703125l-6.796875 0q0.03125 1.484375 0.859375 2.40625q0.84375 0.90625 2.125 0.90625q0.90625 0 1.53125 -0.359375q0.640625 -0.375 1.109375 -0.984375l1.046875 0.8125q-1.265625 1.9375 -3.78125 1.9375zm-0.21875 -9.0q-1.03125 0 -1.75 0.765625q-0.703125 0.75 -0.859375 2.109375l5.015625 0l0 -0.125q-0.0625 -1.3125 -0.703125 -2.03125q-0.625 -0.71875 -1.703125 -0.71875z" fill-rule="nonzero"></path><path fill="#000000" fill-opacity="0.0" d="m360.0 45.83727l0 34.26772" fill-rule="nonzero"></path><path stroke="#000000" stroke-width="2.0" stroke-linejoin="round" stroke-linecap="butt" d="m360.0 45.83727l0 22.26772" fill-rule="evenodd"></path><path fill="#000000" stroke="#000000" stroke-width="2.0" stroke-linecap="butt" d="m356.69653 68.10499l3.3034668 9.076195l3.3034668 -9.076195z" fill-rule="evenodd"></path><path fill="#000000" fill-opacity="0.0" d="m360.0 119.86614l0 29.984245" fill-rule="nonzero"></path><path stroke="#000000" stroke-width="2.0" stroke-linejoin="round" stroke-linecap="butt" d="m360.0 119.86614l0 17.984245" fill-rule="evenodd"></path><path fill="#000000" stroke="#000000" stroke-width="2.0" stroke-linecap="butt" d="m356.69653 137.85039l3.3034668 9.076202l3.3034668 -9.076202z" fill-rule="evenodd"></path><path fill="#000000" fill-opacity="0.0" d="m360.0 189.5958l-227.81102 56.97638" fill-rule="nonzero"></path><path stroke="#000000" stroke-width="2.0" stroke-linejoin="round" stroke-linecap="butt" d="m360.0 189.5958l-216.1696 54.06482" fill-rule="evenodd"></path><path fill="#000000" stroke="#000000" stroke-width="2.0" stroke-linecap="butt" d="m143.02888 240.45586l-8.003464 5.4069214l9.606506 1.002594z" fill-rule="evenodd"></path><path fill="#000000" fill-opacity="0.0" d="m360.0 189.5958l227.81104 56.97638" fill-rule="nonzero"></path><path stroke="#000000" stroke-width="2.0" stroke-linejoin="round" stroke-linecap="butt" d="m360.0 189.5958l216.16956 54.06482" fill-rule="evenodd"></path><path fill="#000000" stroke="#000000" stroke-width="2.0" stroke-linecap="butt" d="m575.3681 246.86537l9.606506 -1.002594l-8.003479 -5.4069214z" fill-rule="evenodd"></path><path fill="#000000" fill-opacity="0.0" d="m254.69029 266.44095l47.464554 0" fill-rule="nonzero"></path><path stroke="#000000" stroke-width="2.0" stroke-linejoin="round" stroke-linecap="butt" d="m266.69028 266.44095l23.46457 0" fill-rule="evenodd"></path><path fill="#000000" stroke="#000000" stroke-width="2.0" stroke-linecap="butt" d="m266.69028 263.13748l-9.076172 3.3034668l9.076172 3.3034668z" fill-rule="evenodd"></path><path fill="#000000" stroke="#000000" stroke-width="2.0" stroke-linecap="butt" d="m290.15485 269.74442l9.076202 -3.3034668l-9.076202 -3.3034668z" fill-rule="evenodd"></path><path fill="#000000" fill-opacity="0.0" d="m417.84253 266.44095l47.46457 0" fill-rule="nonzero"></path><path stroke="#000000" stroke-width="2.0" stroke-linejoin="round" stroke-linecap="butt" d="m429.84253 266.44095l23.46457 0" fill-rule="evenodd"></path><path fill="#000000" stroke="#000000" stroke-width="2.0" stroke-linecap="butt" d="m429.84253 263.13748l-9.076202 3.3034668l9.076202 3.3034668z" fill-rule="evenodd"></path><path fill="#000000" stroke="#000000" stroke-width="2.0" stroke-linecap="butt" d="m453.3071 269.74442l9.076172 -3.3034668l-9.076172 -3.3034668z" fill-rule="evenodd"></path><path fill="#000000" fill-opacity="0.0" d="m587.81366 333.73227l0 -47.433044" fill-rule="nonzero"></path><path stroke="#000000" stroke-width="2.0" stroke-linejoin="round" stroke-linecap="butt" d="m587.81366 321.73227l0 -23.433044" fill-rule="evenodd"></path><path fill="#000000" stroke="#000000" stroke-width="2.0" stroke-linecap="butt" d="m584.5102 321.73227l3.3034668 9.076202l3.3034668 -9.076202z" fill-rule="evenodd"></path><path fill="#000000" stroke="#000000" stroke-width="2.0" stroke-linecap="butt" d="m591.1171 298.29922l-3.3034668 -9.076202l-3.3034668 9.076202z" fill-rule="evenodd"></path><path fill="#000000" fill-opacity="0.0" d="m132.18636 333.73227l0 -47.433044" fill-rule="nonzero"></path><path stroke="#000000" stroke-width="2.0" stroke-linejoin="round" stroke-linecap="butt" d="m132.18636 321.73227l0 -23.433044" fill-rule="evenodd"></path><path fill="#000000" stroke="#000000" stroke-width="2.0" stroke-linecap="butt" d="m128.88289 321.73227l3.3034668 9.076202l3.3034668 -9.076202z" fill-rule="evenodd"></path><path fill="#000000" stroke="#000000" stroke-width="2.0" stroke-linecap="butt" d="m135.48982 298.29922l-3.3034668 -9.076202l-3.3034668 9.076202z" fill-rule="evenodd"></path></g></svg>

